<mxfile host="Electron" agent="Mozilla/5.0 (Windows NT 10.0; Win64; x64) AppleWebKit/537.36 (KHTML, like Gecko) draw.io/24.7.17 Chrome/128.0.6613.36 Electron/32.0.1 Safari/537.36" version="24.7.17">
  <diagram id="-SCo0IzD3oHXbsOg4MZh" name="Page-1">
    <mxGraphModel dx="2193" dy="805" grid="1" gridSize="10" guides="1" tooltips="1" connect="1" arrows="1" fold="1" page="1" pageScale="1" pageWidth="827" pageHeight="1169" math="0" shadow="0">
      <root>
        <mxCell id="0" />
        <mxCell id="1" parent="0" />
        <mxCell id="9I6hs4nXbi-sUa1rTmq4-19" value="Use" style="endArrow=open;endSize=12;dashed=1;html=1;" parent="1" source="9I6hs4nXbi-sUa1rTmq4-7" target="9I6hs4nXbi-sUa1rTmq4-1" edge="1">
          <mxGeometry width="160" relative="1" as="geometry">
            <mxPoint x="440" y="190" as="sourcePoint" />
            <mxPoint x="600" y="190" as="targetPoint" />
          </mxGeometry>
        </mxCell>
        <mxCell id="9I6hs4nXbi-sUa1rTmq4-20" value="Creates" style="endArrow=open;endSize=12;dashed=1;html=1;" parent="1" source="9I6hs4nXbi-sUa1rTmq4-7" target="9I6hs4nXbi-sUa1rTmq4-11" edge="1">
          <mxGeometry width="160" relative="1" as="geometry">
            <mxPoint x="410.7950310559006" y="250" as="sourcePoint" />
            <mxPoint x="386.0124223602486" y="180" as="targetPoint" />
          </mxGeometry>
        </mxCell>
        <mxCell id="9I6hs4nXbi-sUa1rTmq4-37" value="" style="endArrow=diamondThin;endFill=0;endSize=24;html=1;" parent="1" source="9I6hs4nXbi-sUa1rTmq4-42" target="9I6hs4nXbi-sUa1rTmq4-21" edge="1">
          <mxGeometry width="160" relative="1" as="geometry">
            <mxPoint x="290" y="610" as="sourcePoint" />
            <mxPoint x="450" y="610" as="targetPoint" />
          </mxGeometry>
        </mxCell>
        <mxCell id="9I6hs4nXbi-sUa1rTmq4-38" value="Creates" style="endArrow=open;endSize=12;dashed=1;html=1;" parent="1" source="9I6hs4nXbi-sUa1rTmq4-21" target="9I6hs4nXbi-sUa1rTmq4-26" edge="1">
          <mxGeometry width="160" relative="1" as="geometry">
            <mxPoint x="600" y="540" as="sourcePoint" />
            <mxPoint x="760" y="540" as="targetPoint" />
          </mxGeometry>
        </mxCell>
        <mxCell id="9I6hs4nXbi-sUa1rTmq4-39" value="" style="endArrow=diamondThin;endFill=1;endSize=24;html=1;" parent="1" source="9I6hs4nXbi-sUa1rTmq4-31" target="9I6hs4nXbi-sUa1rTmq4-26" edge="1">
          <mxGeometry width="160" relative="1" as="geometry">
            <mxPoint x="660" y="570" as="sourcePoint" />
            <mxPoint x="820" y="570" as="targetPoint" />
          </mxGeometry>
        </mxCell>
        <mxCell id="9I6hs4nXbi-sUa1rTmq4-42" value="&lt;i&gt;&lt;span style=&quot;font-weight: normal&quot;&gt;&amp;lt;&amp;lt;interface&amp;gt;&amp;gt;&lt;/span&gt;&lt;br&gt;IHTTPClient&lt;/i&gt;" style="swimlane;fontStyle=1;align=center;verticalAlign=top;childLayout=stackLayout;horizontal=1;startSize=36;horizontalStack=0;resizeParent=1;resizeParentMax=0;resizeLast=0;collapsible=1;marginBottom=0;html=1;" parent="1" vertex="1">
          <mxGeometry x="-30" y="270" width="323" height="62" as="geometry" />
        </mxCell>
        <mxCell id="9I6hs4nXbi-sUa1rTmq4-46" value="+ SendRequest(urlRequest: URLRequest): URLResponse" style="text;strokeColor=none;fillColor=none;align=left;verticalAlign=top;spacingLeft=4;spacingRight=4;overflow=hidden;rotatable=0;points=[[0,0.5],[1,0.5]];portConstraint=eastwest;fontStyle=2" parent="9I6hs4nXbi-sUa1rTmq4-42" vertex="1">
          <mxGeometry y="36" width="323" height="26" as="geometry" />
        </mxCell>
        <mxCell id="9I6hs4nXbi-sUa1rTmq4-47" value="Use" style="endArrow=open;endSize=12;dashed=1;html=1;" parent="1" source="9I6hs4nXbi-sUa1rTmq4-42" target="9I6hs4nXbi-sUa1rTmq4-1" edge="1">
          <mxGeometry width="160" relative="1" as="geometry">
            <mxPoint x="604.4917127071826" y="270" as="sourcePoint" />
            <mxPoint x="464.27071823204415" y="180" as="targetPoint" />
          </mxGeometry>
        </mxCell>
        <mxCell id="9I6hs4nXbi-sUa1rTmq4-48" value="Creates" style="endArrow=open;endSize=12;dashed=1;html=1;" parent="1" source="9I6hs4nXbi-sUa1rTmq4-42" target="9I6hs4nXbi-sUa1rTmq4-11" edge="1">
          <mxGeometry width="160" relative="1" as="geometry">
            <mxPoint x="650.0241545893723" y="270" as="sourcePoint" />
            <mxPoint x="677.4637681159425" y="128" as="targetPoint" />
          </mxGeometry>
        </mxCell>
        <mxCell id="9I6hs4nXbi-sUa1rTmq4-49" value="" style="endArrow=block;dashed=1;endFill=0;endSize=12;html=1;" parent="1" source="9I6hs4nXbi-sUa1rTmq4-7" target="9I6hs4nXbi-sUa1rTmq4-42" edge="1">
          <mxGeometry width="160" relative="1" as="geometry">
            <mxPoint x="180" y="460" as="sourcePoint" />
            <mxPoint x="340" y="460" as="targetPoint" />
          </mxGeometry>
        </mxCell>
        <mxCell id="9I6hs4nXbi-sUa1rTmq4-1" value="URLRequest" style="swimlane;fontStyle=1;align=center;verticalAlign=top;childLayout=stackLayout;horizontal=1;startSize=26;horizontalStack=0;resizeParent=1;resizeParentMax=0;resizeLast=0;collapsible=1;marginBottom=0;" parent="1" vertex="1">
          <mxGeometry x="40" y="40" width="226" height="130" as="geometry" />
        </mxCell>
        <mxCell id="9I6hs4nXbi-sUa1rTmq4-6" value="+ url: string" style="text;strokeColor=none;fillColor=none;align=left;verticalAlign=top;spacingLeft=4;spacingRight=4;overflow=hidden;rotatable=0;points=[[0,0.5],[1,0.5]];portConstraint=eastwest;" parent="9I6hs4nXbi-sUa1rTmq4-1" vertex="1">
          <mxGeometry y="26" width="226" height="26" as="geometry" />
        </mxCell>
        <mxCell id="9I6hs4nXbi-sUa1rTmq4-5" value="+ method: string" style="text;strokeColor=none;fillColor=none;align=left;verticalAlign=top;spacingLeft=4;spacingRight=4;overflow=hidden;rotatable=0;points=[[0,0.5],[1,0.5]];portConstraint=eastwest;" parent="9I6hs4nXbi-sUa1rTmq4-1" vertex="1">
          <mxGeometry y="52" width="226" height="26" as="geometry" />
        </mxCell>
        <mxCell id="9I6hs4nXbi-sUa1rTmq4-4" value="+ headers: vector&lt;pair&lt;string, string&gt;&gt;" style="text;strokeColor=none;fillColor=none;align=left;verticalAlign=top;spacingLeft=4;spacingRight=4;overflow=hidden;rotatable=0;points=[[0,0.5],[1,0.5]];portConstraint=eastwest;" parent="9I6hs4nXbi-sUa1rTmq4-1" vertex="1">
          <mxGeometry y="78" width="226" height="26" as="geometry" />
        </mxCell>
        <mxCell id="9I6hs4nXbi-sUa1rTmq4-2" value="+ body: vector&lt;byte&gt;" style="text;strokeColor=none;fillColor=none;align=left;verticalAlign=top;spacingLeft=4;spacingRight=4;overflow=hidden;rotatable=0;points=[[0,0.5],[1,0.5]];portConstraint=eastwest;" parent="9I6hs4nXbi-sUa1rTmq4-1" vertex="1">
          <mxGeometry y="104" width="226" height="26" as="geometry" />
        </mxCell>
        <mxCell id="9I6hs4nXbi-sUa1rTmq4-53" value="Use" style="endArrow=open;endSize=12;dashed=1;html=1;" parent="1" source="9I6hs4nXbi-sUa1rTmq4-76" target="9I6hs4nXbi-sUa1rTmq4-78" edge="1">
          <mxGeometry width="160" relative="1" as="geometry">
            <mxPoint x="440" y="970" as="sourcePoint" />
            <mxPoint x="600" y="970" as="targetPoint" />
          </mxGeometry>
        </mxCell>
        <mxCell id="9I6hs4nXbi-sUa1rTmq4-54" value="Creates" style="endArrow=open;endSize=12;dashed=1;html=1;" parent="1" source="9I6hs4nXbi-sUa1rTmq4-76" target="9I6hs4nXbi-sUa1rTmq4-50" edge="1">
          <mxGeometry width="160" relative="1" as="geometry">
            <mxPoint x="410.7950310559006" y="1030" as="sourcePoint" />
            <mxPoint x="386.0124223602486" y="960" as="targetPoint" />
          </mxGeometry>
        </mxCell>
        <mxCell id="9I6hs4nXbi-sUa1rTmq4-60" value="Use" style="endArrow=open;endSize=12;dashed=1;html=1;" parent="1" source="9I6hs4nXbi-sUa1rTmq4-58" target="9I6hs4nXbi-sUa1rTmq4-78" edge="1">
          <mxGeometry width="160" relative="1" as="geometry">
            <mxPoint x="604.4917127071826" y="1050" as="sourcePoint" />
            <mxPoint x="464.27071823204415" y="960" as="targetPoint" />
          </mxGeometry>
        </mxCell>
        <mxCell id="9I6hs4nXbi-sUa1rTmq4-61" value="Creates" style="endArrow=open;endSize=12;dashed=1;html=1;" parent="1" source="9I6hs4nXbi-sUa1rTmq4-58" target="9I6hs4nXbi-sUa1rTmq4-50" edge="1">
          <mxGeometry width="160" relative="1" as="geometry">
            <mxPoint x="650.0241545893723" y="1050" as="sourcePoint" />
            <mxPoint x="677.4637681159425" y="908" as="targetPoint" />
          </mxGeometry>
        </mxCell>
        <mxCell id="9I6hs4nXbi-sUa1rTmq4-62" value="" style="endArrow=block;dashed=1;endFill=0;endSize=12;html=1;" parent="1" source="9I6hs4nXbi-sUa1rTmq4-76" target="9I6hs4nXbi-sUa1rTmq4-58" edge="1">
          <mxGeometry width="160" relative="1" as="geometry">
            <mxPoint x="180" y="1240" as="sourcePoint" />
            <mxPoint x="340" y="1240" as="targetPoint" />
          </mxGeometry>
        </mxCell>
        <mxCell id="9I6hs4nXbi-sUa1rTmq4-11" value="URLResponse" style="swimlane;fontStyle=1;align=center;verticalAlign=top;childLayout=stackLayout;horizontal=1;startSize=26;horizontalStack=0;resizeParent=1;resizeParentMax=0;resizeLast=0;collapsible=1;marginBottom=0;" parent="1" vertex="1">
          <mxGeometry x="360" y="66" width="230" height="104" as="geometry" />
        </mxCell>
        <mxCell id="9I6hs4nXbi-sUa1rTmq4-12" value="+ headers: vector&lt;pair&lt;string, string&gt;&gt;" style="text;strokeColor=none;fillColor=none;align=left;verticalAlign=top;spacingLeft=4;spacingRight=4;overflow=hidden;rotatable=0;points=[[0,0.5],[1,0.5]];portConstraint=eastwest;" parent="9I6hs4nXbi-sUa1rTmq4-11" vertex="1">
          <mxGeometry y="26" width="230" height="26" as="geometry" />
        </mxCell>
        <mxCell id="9I6hs4nXbi-sUa1rTmq4-14" value="+ data: vector&lt;byte&gt;" style="text;strokeColor=none;fillColor=none;align=left;verticalAlign=top;spacingLeft=4;spacingRight=4;overflow=hidden;rotatable=0;points=[[0,0.5],[1,0.5]];portConstraint=eastwest;" parent="9I6hs4nXbi-sUa1rTmq4-11" vertex="1">
          <mxGeometry y="52" width="230" height="26" as="geometry" />
        </mxCell>
        <mxCell id="9I6hs4nXbi-sUa1rTmq4-139" value="+ statusCode: int" style="text;strokeColor=none;fillColor=none;align=left;verticalAlign=top;spacingLeft=4;spacingRight=4;overflow=hidden;rotatable=0;points=[[0,0.5],[1,0.5]];portConstraint=eastwest;" parent="9I6hs4nXbi-sUa1rTmq4-11" vertex="1">
          <mxGeometry y="78" width="230" height="26" as="geometry" />
        </mxCell>
        <mxCell id="9I6hs4nXbi-sUa1rTmq4-58" value="&lt;i&gt;&amp;lt;&amp;lt;interface&amp;gt;&amp;gt;&lt;br&gt;IHTTPClient&lt;/i&gt;" style="swimlane;fontStyle=1;align=center;verticalAlign=top;childLayout=stackLayout;horizontal=1;startSize=36;horizontalStack=0;resizeParent=1;resizeParentMax=0;resizeLast=0;collapsible=1;marginBottom=0;html=1;" parent="1" vertex="1">
          <mxGeometry x="-30" y="1050" width="323" height="62" as="geometry" />
        </mxCell>
        <mxCell id="9I6hs4nXbi-sUa1rTmq4-59" value="+ SendRequest(urlRequest: URLRequest): URLResponse" style="text;strokeColor=none;fillColor=none;align=left;verticalAlign=top;spacingLeft=4;spacingRight=4;overflow=hidden;rotatable=0;points=[[0,0.5],[1,0.5]];portConstraint=eastwest;fontStyle=2" parent="9I6hs4nXbi-sUa1rTmq4-58" vertex="1">
          <mxGeometry y="36" width="323" height="26" as="geometry" />
        </mxCell>
        <mxCell id="9I6hs4nXbi-sUa1rTmq4-85" value="" style="endArrow=diamondThin;endFill=0;endSize=24;html=1;edgeStyle=orthogonalEdgeStyle;" parent="1" source="9I6hs4nXbi-sUa1rTmq4-58" target="9I6hs4nXbi-sUa1rTmq4-83" edge="1">
          <mxGeometry width="160" relative="1" as="geometry">
            <mxPoint x="334" y="1250" as="sourcePoint" />
            <mxPoint x="494" y="1250" as="targetPoint" />
            <Array as="points">
              <mxPoint x="132" y="1203" />
            </Array>
          </mxGeometry>
        </mxCell>
        <mxCell id="9I6hs4nXbi-sUa1rTmq4-88" value="" style="endArrow=block;dashed=1;endFill=0;endSize=12;html=1;" parent="1" source="9I6hs4nXbi-sUa1rTmq4-83" target="9I6hs4nXbi-sUa1rTmq4-58" edge="1">
          <mxGeometry width="160" relative="1" as="geometry">
            <mxPoint x="690" y="1087.156271899089" as="sourcePoint" />
            <mxPoint x="303" y="1089.8682550805886" as="targetPoint" />
          </mxGeometry>
        </mxCell>
        <mxCell id="9I6hs4nXbi-sUa1rTmq4-93" value="Extends" style="endArrow=block;endSize=16;endFill=0;html=1;" parent="1" source="9I6hs4nXbi-sUa1rTmq4-89" target="9I6hs4nXbi-sUa1rTmq4-83" edge="1">
          <mxGeometry width="160" relative="1" as="geometry">
            <mxPoint x="710" y="1360" as="sourcePoint" />
            <mxPoint x="870" y="1360" as="targetPoint" />
          </mxGeometry>
        </mxCell>
        <mxCell id="9I6hs4nXbi-sUa1rTmq4-21" value="HTTPTaskGateway" style="swimlane;fontStyle=1;align=center;verticalAlign=top;childLayout=stackLayout;horizontal=1;startSize=26;horizontalStack=0;resizeParent=1;resizeParentMax=0;resizeLast=0;collapsible=1;marginBottom=0;" parent="1" vertex="1">
          <mxGeometry x="11.5" y="400" width="240" height="104" as="geometry" />
        </mxCell>
        <mxCell id="9I6hs4nXbi-sUa1rTmq4-24" value="+ GetAllTasks(): vector&lt;TaskInfo&gt;" style="text;strokeColor=none;fillColor=none;align=left;verticalAlign=top;spacingLeft=4;spacingRight=4;overflow=hidden;rotatable=0;points=[[0,0.5],[1,0.5]];portConstraint=eastwest;" parent="9I6hs4nXbi-sUa1rTmq4-21" vertex="1">
          <mxGeometry y="26" width="240" height="26" as="geometry" />
        </mxCell>
        <mxCell id="9I6hs4nXbi-sUa1rTmq4-40" value="+ SaveTask(taskInfo: TaskInfo)" style="text;strokeColor=none;fillColor=none;align=left;verticalAlign=top;spacingLeft=4;spacingRight=4;overflow=hidden;rotatable=0;points=[[0,0.5],[1,0.5]];portConstraint=eastwest;" parent="9I6hs4nXbi-sUa1rTmq4-21" vertex="1">
          <mxGeometry y="52" width="240" height="26" as="geometry" />
        </mxCell>
        <mxCell id="9I6hs4nXbi-sUa1rTmq4-41" value="+ GetTask(id: String)" style="text;strokeColor=none;fillColor=none;align=left;verticalAlign=top;spacingLeft=4;spacingRight=4;overflow=hidden;rotatable=0;points=[[0,0.5],[1,0.5]];portConstraint=eastwest;" parent="9I6hs4nXbi-sUa1rTmq4-21" vertex="1">
          <mxGeometry y="78" width="240" height="26" as="geometry" />
        </mxCell>
        <mxCell id="9I6hs4nXbi-sUa1rTmq4-26" value="TaskInfo" style="swimlane;fontStyle=1;align=center;verticalAlign=top;childLayout=stackLayout;horizontal=1;startSize=26;horizontalStack=0;resizeParent=1;resizeParentMax=0;resizeLast=0;collapsible=1;marginBottom=0;" parent="1" vertex="1">
          <mxGeometry x="320" y="400" width="160" height="104" as="geometry" />
        </mxCell>
        <mxCell id="9I6hs4nXbi-sUa1rTmq4-27" value="+ id: String" style="text;strokeColor=none;fillColor=none;align=left;verticalAlign=top;spacingLeft=4;spacingRight=4;overflow=hidden;rotatable=0;points=[[0,0.5],[1,0.5]];portConstraint=eastwest;" parent="9I6hs4nXbi-sUa1rTmq4-26" vertex="1">
          <mxGeometry y="26" width="160" height="26" as="geometry" />
        </mxCell>
        <mxCell id="9I6hs4nXbi-sUa1rTmq4-29" value="+ description: String" style="text;strokeColor=none;fillColor=none;align=left;verticalAlign=top;spacingLeft=4;spacingRight=4;overflow=hidden;rotatable=0;points=[[0,0.5],[1,0.5]];portConstraint=eastwest;" parent="9I6hs4nXbi-sUa1rTmq4-26" vertex="1">
          <mxGeometry y="52" width="160" height="26" as="geometry" />
        </mxCell>
        <mxCell id="9I6hs4nXbi-sUa1rTmq4-30" value="+ status: TaskStatus" style="text;strokeColor=none;fillColor=none;align=left;verticalAlign=top;spacingLeft=4;spacingRight=4;overflow=hidden;rotatable=0;points=[[0,0.5],[1,0.5]];portConstraint=eastwest;" parent="9I6hs4nXbi-sUa1rTmq4-26" vertex="1">
          <mxGeometry y="78" width="160" height="26" as="geometry" />
        </mxCell>
        <mxCell id="9I6hs4nXbi-sUa1rTmq4-31" value="&lt;i style=&quot;font-weight: normal&quot;&gt;&amp;lt;&amp;lt;enum&amp;gt;&amp;gt;&lt;/i&gt;&lt;br&gt;TaskStatus" style="swimlane;fontStyle=1;align=center;verticalAlign=top;childLayout=stackLayout;horizontal=1;startSize=40;horizontalStack=0;resizeParent=1;resizeParentMax=0;resizeLast=0;collapsible=1;marginBottom=0;html=1;" parent="1" vertex="1">
          <mxGeometry x="530" y="400" width="160" height="144" as="geometry" />
        </mxCell>
        <mxCell id="9I6hs4nXbi-sUa1rTmq4-32" value="+ Open" style="text;strokeColor=none;fillColor=none;align=left;verticalAlign=top;spacingLeft=4;spacingRight=4;overflow=hidden;rotatable=0;points=[[0,0.5],[1,0.5]];portConstraint=eastwest;" parent="9I6hs4nXbi-sUa1rTmq4-31" vertex="1">
          <mxGeometry y="40" width="160" height="26" as="geometry" />
        </mxCell>
        <mxCell id="9I6hs4nXbi-sUa1rTmq4-34" value="+ InProgress" style="text;strokeColor=none;fillColor=none;align=left;verticalAlign=top;spacingLeft=4;spacingRight=4;overflow=hidden;rotatable=0;points=[[0,0.5],[1,0.5]];portConstraint=eastwest;" parent="9I6hs4nXbi-sUa1rTmq4-31" vertex="1">
          <mxGeometry y="66" width="160" height="26" as="geometry" />
        </mxCell>
        <mxCell id="9I6hs4nXbi-sUa1rTmq4-35" value="+ Testing" style="text;strokeColor=none;fillColor=none;align=left;verticalAlign=top;spacingLeft=4;spacingRight=4;overflow=hidden;rotatable=0;points=[[0,0.5],[1,0.5]];portConstraint=eastwest;" parent="9I6hs4nXbi-sUa1rTmq4-31" vertex="1">
          <mxGeometry y="92" width="160" height="26" as="geometry" />
        </mxCell>
        <mxCell id="9I6hs4nXbi-sUa1rTmq4-36" value="+ Done" style="text;strokeColor=none;fillColor=none;align=left;verticalAlign=top;spacingLeft=4;spacingRight=4;overflow=hidden;rotatable=0;points=[[0,0.5],[1,0.5]];portConstraint=eastwest;" parent="9I6hs4nXbi-sUa1rTmq4-31" vertex="1">
          <mxGeometry y="118" width="160" height="26" as="geometry" />
        </mxCell>
        <mxCell id="9I6hs4nXbi-sUa1rTmq4-7" value="HTTPClient" style="swimlane;fontStyle=1;align=center;verticalAlign=top;childLayout=stackLayout;horizontal=1;startSize=26;horizontalStack=0;resizeParent=1;resizeParentMax=0;resizeLast=0;collapsible=1;marginBottom=0;" parent="1" vertex="1">
          <mxGeometry x="390" y="270" width="330" height="52" as="geometry" />
        </mxCell>
        <mxCell id="9I6hs4nXbi-sUa1rTmq4-8" value="+ SendRequest(urlRequest: URLRequest): URLResponse" style="text;strokeColor=none;fillColor=none;align=left;verticalAlign=top;spacingLeft=4;spacingRight=4;overflow=hidden;rotatable=0;points=[[0,0.5],[1,0.5]];portConstraint=eastwest;" parent="9I6hs4nXbi-sUa1rTmq4-7" vertex="1">
          <mxGeometry y="26" width="330" height="26" as="geometry" />
        </mxCell>
        <mxCell id="9I6hs4nXbi-sUa1rTmq4-94" value="return m_wrappee-&amp;gt;SendRequest(urlRequest);" style="shape=note;whiteSpace=wrap;html=1;size=14;verticalAlign=top;align=left;spacingTop=-6;" parent="1" vertex="1">
          <mxGeometry x="464" y="1120" width="280" height="29" as="geometry" />
        </mxCell>
        <mxCell id="9I6hs4nXbi-sUa1rTmq4-95" style="edgeStyle=orthogonalEdgeStyle;rounded=0;orthogonalLoop=1;jettySize=auto;html=1;" parent="1" source="9I6hs4nXbi-sUa1rTmq4-84" target="9I6hs4nXbi-sUa1rTmq4-94" edge="1">
          <mxGeometry relative="1" as="geometry" />
        </mxCell>
        <mxCell id="9I6hs4nXbi-sUa1rTmq4-50" value="URLResponse" style="swimlane;fontStyle=1;align=center;verticalAlign=top;childLayout=stackLayout;horizontal=1;startSize=26;horizontalStack=0;resizeParent=1;resizeParentMax=0;resizeLast=0;collapsible=1;marginBottom=0;" parent="1" vertex="1">
          <mxGeometry x="414" y="840" width="230" height="104" as="geometry" />
        </mxCell>
        <mxCell id="9I6hs4nXbi-sUa1rTmq4-51" value="+ headers: vector&lt;pair&lt;string, string&gt;&gt;" style="text;strokeColor=none;fillColor=none;align=left;verticalAlign=top;spacingLeft=4;spacingRight=4;overflow=hidden;rotatable=0;points=[[0,0.5],[1,0.5]];portConstraint=eastwest;" parent="9I6hs4nXbi-sUa1rTmq4-50" vertex="1">
          <mxGeometry y="26" width="230" height="26" as="geometry" />
        </mxCell>
        <mxCell id="9I6hs4nXbi-sUa1rTmq4-52" value="+ data: vector&lt;byte&gt;" style="text;strokeColor=none;fillColor=none;align=left;verticalAlign=top;spacingLeft=4;spacingRight=4;overflow=hidden;rotatable=0;points=[[0,0.5],[1,0.5]];portConstraint=eastwest;" parent="9I6hs4nXbi-sUa1rTmq4-50" vertex="1">
          <mxGeometry y="52" width="230" height="26" as="geometry" />
        </mxCell>
        <mxCell id="9I6hs4nXbi-sUa1rTmq4-138" value="+ statusCode: int" style="text;strokeColor=none;fillColor=none;align=left;verticalAlign=top;spacingLeft=4;spacingRight=4;overflow=hidden;rotatable=0;points=[[0,0.5],[1,0.5]];portConstraint=eastwest;" parent="9I6hs4nXbi-sUa1rTmq4-50" vertex="1">
          <mxGeometry y="78" width="230" height="26" as="geometry" />
        </mxCell>
        <mxCell id="9I6hs4nXbi-sUa1rTmq4-78" value="URLRequest" style="swimlane;fontStyle=1;align=center;verticalAlign=top;childLayout=stackLayout;horizontal=1;startSize=26;horizontalStack=0;resizeParent=1;resizeParentMax=0;resizeLast=0;collapsible=1;marginBottom=0;" parent="1" vertex="1">
          <mxGeometry y="850" width="226" height="130" as="geometry" />
        </mxCell>
        <mxCell id="9I6hs4nXbi-sUa1rTmq4-79" value="+ url: string" style="text;strokeColor=none;fillColor=none;align=left;verticalAlign=top;spacingLeft=4;spacingRight=4;overflow=hidden;rotatable=0;points=[[0,0.5],[1,0.5]];portConstraint=eastwest;" parent="9I6hs4nXbi-sUa1rTmq4-78" vertex="1">
          <mxGeometry y="26" width="226" height="26" as="geometry" />
        </mxCell>
        <mxCell id="9I6hs4nXbi-sUa1rTmq4-80" value="+ method: string" style="text;strokeColor=none;fillColor=none;align=left;verticalAlign=top;spacingLeft=4;spacingRight=4;overflow=hidden;rotatable=0;points=[[0,0.5],[1,0.5]];portConstraint=eastwest;" parent="9I6hs4nXbi-sUa1rTmq4-78" vertex="1">
          <mxGeometry y="52" width="226" height="26" as="geometry" />
        </mxCell>
        <mxCell id="9I6hs4nXbi-sUa1rTmq4-81" value="+ headers: vector&lt;pair&lt;string, string&gt;&gt;" style="text;strokeColor=none;fillColor=none;align=left;verticalAlign=top;spacingLeft=4;spacingRight=4;overflow=hidden;rotatable=0;points=[[0,0.5],[1,0.5]];portConstraint=eastwest;" parent="9I6hs4nXbi-sUa1rTmq4-78" vertex="1">
          <mxGeometry y="78" width="226" height="26" as="geometry" />
        </mxCell>
        <mxCell id="9I6hs4nXbi-sUa1rTmq4-82" value="+ body: vector&lt;byte&gt;" style="text;strokeColor=none;fillColor=none;align=left;verticalAlign=top;spacingLeft=4;spacingRight=4;overflow=hidden;rotatable=0;points=[[0,0.5],[1,0.5]];portConstraint=eastwest;" parent="9I6hs4nXbi-sUa1rTmq4-78" vertex="1">
          <mxGeometry y="104" width="226" height="26" as="geometry" />
        </mxCell>
        <mxCell id="9I6hs4nXbi-sUa1rTmq4-98" value="urlRequest.headers.emplace_back(&lt;br&gt;&amp;nbsp; &amp;nbsp; &quot;Authorization&quot;, &quot;Bearer &quot; + m_token);&lt;br&gt;return HTTPClientDecorator::SendRequest(urlRequest);" style="shape=note;whiteSpace=wrap;html=1;size=14;verticalAlign=top;align=left;spacingTop=-6;" parent="1" vertex="1">
          <mxGeometry x="540" y="1247.5" width="320" height="50" as="geometry" />
        </mxCell>
        <mxCell id="9I6hs4nXbi-sUa1rTmq4-99" style="edgeStyle=orthogonalEdgeStyle;rounded=0;orthogonalLoop=1;jettySize=auto;html=1;" parent="1" source="9I6hs4nXbi-sUa1rTmq4-90" target="9I6hs4nXbi-sUa1rTmq4-98" edge="1">
          <mxGeometry relative="1" as="geometry" />
        </mxCell>
        <mxCell id="9I6hs4nXbi-sUa1rTmq4-83" value="HTTPClientDecorator" style="swimlane;fontStyle=1;align=center;verticalAlign=top;childLayout=stackLayout;horizontal=1;startSize=26;horizontalStack=0;resizeParent=1;resizeParentMax=0;resizeLast=0;collapsible=1;marginBottom=0;fillColor=#dae8fc;strokeColor=#6c8ebf;" parent="1" vertex="1">
          <mxGeometry x="180" y="1161.5" width="330" height="86" as="geometry" />
        </mxCell>
        <mxCell id="9I6hs4nXbi-sUa1rTmq4-84" value="+ SendRequest(urlRequest: URLRequest): URLResponse" style="text;strokeColor=none;fillColor=none;align=left;verticalAlign=top;spacingLeft=4;spacingRight=4;overflow=hidden;rotatable=0;points=[[0,0.5],[1,0.5]];portConstraint=eastwest;" parent="9I6hs4nXbi-sUa1rTmq4-83" vertex="1">
          <mxGeometry y="26" width="330" height="26" as="geometry" />
        </mxCell>
        <mxCell id="9I6hs4nXbi-sUa1rTmq4-87" value="" style="line;strokeWidth=1;fillColor=none;align=left;verticalAlign=middle;spacingTop=-1;spacingLeft=3;spacingRight=3;rotatable=0;labelPosition=right;points=[];portConstraint=eastwest;html=1;" parent="9I6hs4nXbi-sUa1rTmq4-83" vertex="1">
          <mxGeometry y="52" width="330" height="8" as="geometry" />
        </mxCell>
        <mxCell id="9I6hs4nXbi-sUa1rTmq4-86" value="- m_wrappee:IHTTPClient" style="text;strokeColor=none;fillColor=none;align=left;verticalAlign=top;spacingLeft=4;spacingRight=4;overflow=hidden;rotatable=0;points=[[0,0.5],[1,0.5]];portConstraint=eastwest;" parent="9I6hs4nXbi-sUa1rTmq4-83" vertex="1">
          <mxGeometry y="60" width="330" height="26" as="geometry" />
        </mxCell>
        <mxCell id="9I6hs4nXbi-sUa1rTmq4-76" value="HTTPClient" style="swimlane;fontStyle=1;align=center;verticalAlign=top;childLayout=stackLayout;horizontal=1;startSize=26;horizontalStack=0;resizeParent=1;resizeParentMax=0;resizeLast=0;collapsible=1;marginBottom=0;" parent="1" vertex="1">
          <mxGeometry x="414" y="1030" width="330" height="52" as="geometry" />
        </mxCell>
        <mxCell id="9I6hs4nXbi-sUa1rTmq4-77" value="+ SendRequest(urlRequest: URLRequest): URLResponse" style="text;strokeColor=none;fillColor=none;align=left;verticalAlign=top;spacingLeft=4;spacingRight=4;overflow=hidden;rotatable=0;points=[[0,0.5],[1,0.5]];portConstraint=eastwest;" parent="9I6hs4nXbi-sUa1rTmq4-76" vertex="1">
          <mxGeometry y="26" width="330" height="26" as="geometry" />
        </mxCell>
        <mxCell id="9I6hs4nXbi-sUa1rTmq4-89" value="BearerAuthorizationDecorator" style="swimlane;fontStyle=1;align=center;verticalAlign=top;childLayout=stackLayout;horizontal=1;startSize=26;horizontalStack=0;resizeParent=1;resizeParentMax=0;resizeLast=0;collapsible=1;marginBottom=0;fillColor=#dae8fc;strokeColor=#6c8ebf;" parent="1" vertex="1">
          <mxGeometry x="190" y="1310" width="330" height="86" as="geometry" />
        </mxCell>
        <mxCell id="9I6hs4nXbi-sUa1rTmq4-90" value="+ SendRequest(urlRequest: URLRequest): URLResponse" style="text;strokeColor=none;fillColor=none;align=left;verticalAlign=top;spacingLeft=4;spacingRight=4;overflow=hidden;rotatable=0;points=[[0,0.5],[1,0.5]];portConstraint=eastwest;" parent="9I6hs4nXbi-sUa1rTmq4-89" vertex="1">
          <mxGeometry y="26" width="330" height="26" as="geometry" />
        </mxCell>
        <mxCell id="9I6hs4nXbi-sUa1rTmq4-97" value="" style="line;strokeWidth=1;fillColor=none;align=left;verticalAlign=middle;spacingTop=-1;spacingLeft=3;spacingRight=3;rotatable=0;labelPosition=right;points=[];portConstraint=eastwest;html=1;" parent="9I6hs4nXbi-sUa1rTmq4-89" vertex="1">
          <mxGeometry y="52" width="330" height="8" as="geometry" />
        </mxCell>
        <mxCell id="9I6hs4nXbi-sUa1rTmq4-96" value="- m_token: string" style="text;strokeColor=none;fillColor=none;align=left;verticalAlign=top;spacingLeft=4;spacingRight=4;overflow=hidden;rotatable=0;points=[[0,0.5],[1,0.5]];portConstraint=eastwest;" parent="9I6hs4nXbi-sUa1rTmq4-89" vertex="1">
          <mxGeometry y="60" width="330" height="26" as="geometry" />
        </mxCell>
        <mxCell id="9I6hs4nXbi-sUa1rTmq4-100" value="Use" style="endArrow=open;endSize=12;dashed=1;html=1;" parent="1" source="9I6hs4nXbi-sUa1rTmq4-126" target="9I6hs4nXbi-sUa1rTmq4-115" edge="1">
          <mxGeometry width="160" relative="1" as="geometry">
            <mxPoint x="430" y="1600" as="sourcePoint" />
            <mxPoint x="590" y="1600" as="targetPoint" />
          </mxGeometry>
        </mxCell>
        <mxCell id="9I6hs4nXbi-sUa1rTmq4-101" value="Creates" style="endArrow=open;endSize=12;dashed=1;html=1;" parent="1" source="9I6hs4nXbi-sUa1rTmq4-126" target="9I6hs4nXbi-sUa1rTmq4-112" edge="1">
          <mxGeometry width="160" relative="1" as="geometry">
            <mxPoint x="400.7950310559006" y="1660" as="sourcePoint" />
            <mxPoint x="376.0124223602486" y="1590" as="targetPoint" />
          </mxGeometry>
        </mxCell>
        <mxCell id="9I6hs4nXbi-sUa1rTmq4-102" value="Use" style="endArrow=open;endSize=12;dashed=1;html=1;" parent="1" source="9I6hs4nXbi-sUa1rTmq4-105" target="9I6hs4nXbi-sUa1rTmq4-115" edge="1">
          <mxGeometry width="160" relative="1" as="geometry">
            <mxPoint x="594.4917127071826" y="1680" as="sourcePoint" />
            <mxPoint x="454.27071823204415" y="1590" as="targetPoint" />
          </mxGeometry>
        </mxCell>
        <mxCell id="9I6hs4nXbi-sUa1rTmq4-103" value="Creates" style="endArrow=open;endSize=12;dashed=1;html=1;" parent="1" source="9I6hs4nXbi-sUa1rTmq4-105" target="9I6hs4nXbi-sUa1rTmq4-112" edge="1">
          <mxGeometry width="160" relative="1" as="geometry">
            <mxPoint x="640.0241545893723" y="1680" as="sourcePoint" />
            <mxPoint x="667.4637681159425" y="1538" as="targetPoint" />
          </mxGeometry>
        </mxCell>
        <mxCell id="9I6hs4nXbi-sUa1rTmq4-104" value="" style="endArrow=block;dashed=1;endFill=0;endSize=12;html=1;" parent="1" source="9I6hs4nXbi-sUa1rTmq4-126" target="9I6hs4nXbi-sUa1rTmq4-105" edge="1">
          <mxGeometry width="160" relative="1" as="geometry">
            <mxPoint x="170" y="1870" as="sourcePoint" />
            <mxPoint x="330" y="1870" as="targetPoint" />
          </mxGeometry>
        </mxCell>
        <mxCell id="9I6hs4nXbi-sUa1rTmq4-107" value="" style="endArrow=diamondThin;endFill=0;endSize=24;html=1;edgeStyle=orthogonalEdgeStyle;" parent="1" source="9I6hs4nXbi-sUa1rTmq4-105" target="9I6hs4nXbi-sUa1rTmq4-122" edge="1">
          <mxGeometry width="160" relative="1" as="geometry">
            <mxPoint x="324" y="1880" as="sourcePoint" />
            <mxPoint x="484" y="1880" as="targetPoint" />
            <Array as="points">
              <mxPoint x="122" y="1833" />
            </Array>
          </mxGeometry>
        </mxCell>
        <mxCell id="9I6hs4nXbi-sUa1rTmq4-108" value="" style="endArrow=block;dashed=1;endFill=0;endSize=12;html=1;" parent="1" source="9I6hs4nXbi-sUa1rTmq4-122" target="9I6hs4nXbi-sUa1rTmq4-105" edge="1">
          <mxGeometry width="160" relative="1" as="geometry">
            <mxPoint x="680" y="1717.156271899089" as="sourcePoint" />
            <mxPoint x="293" y="1719.8682550805886" as="targetPoint" />
          </mxGeometry>
        </mxCell>
        <mxCell id="9I6hs4nXbi-sUa1rTmq4-109" value="Extends" style="endArrow=block;endSize=16;endFill=0;html=1;" parent="1" source="9I6hs4nXbi-sUa1rTmq4-128" target="9I6hs4nXbi-sUa1rTmq4-122" edge="1">
          <mxGeometry width="160" relative="1" as="geometry">
            <mxPoint x="700" y="1990" as="sourcePoint" />
            <mxPoint x="860" y="1990" as="targetPoint" />
          </mxGeometry>
        </mxCell>
        <mxCell id="9I6hs4nXbi-sUa1rTmq4-110" value="return m_wrappee-&amp;gt;SendRequest(urlRequest);" style="shape=note;whiteSpace=wrap;html=1;size=14;verticalAlign=top;align=left;spacingTop=-6;" parent="1" vertex="1">
          <mxGeometry x="454" y="1750" width="280" height="29" as="geometry" />
        </mxCell>
        <mxCell id="9I6hs4nXbi-sUa1rTmq4-111" style="edgeStyle=orthogonalEdgeStyle;rounded=0;orthogonalLoop=1;jettySize=auto;html=1;" parent="1" source="9I6hs4nXbi-sUa1rTmq4-123" target="9I6hs4nXbi-sUa1rTmq4-110" edge="1">
          <mxGeometry relative="1" as="geometry" />
        </mxCell>
        <mxCell id="9I6hs4nXbi-sUa1rTmq4-105" value="&lt;i&gt;&amp;lt;&amp;lt;interface&amp;gt;&amp;gt;&lt;br&gt;IHTTPClient&lt;/i&gt;" style="swimlane;fontStyle=1;align=center;verticalAlign=top;childLayout=stackLayout;horizontal=1;startSize=36;horizontalStack=0;resizeParent=1;resizeParentMax=0;resizeLast=0;collapsible=1;marginBottom=0;html=1;" parent="1" vertex="1">
          <mxGeometry x="-40" y="1680" width="323" height="62" as="geometry" />
        </mxCell>
        <mxCell id="9I6hs4nXbi-sUa1rTmq4-106" value="+ SendRequest(urlRequest: URLRequest): URLResponse" style="text;strokeColor=none;fillColor=none;align=left;verticalAlign=top;spacingLeft=4;spacingRight=4;overflow=hidden;rotatable=0;points=[[0,0.5],[1,0.5]];portConstraint=eastwest;fontStyle=2" parent="9I6hs4nXbi-sUa1rTmq4-105" vertex="1">
          <mxGeometry y="36" width="323" height="26" as="geometry" />
        </mxCell>
        <mxCell id="9I6hs4nXbi-sUa1rTmq4-112" value="URLResponse" style="swimlane;fontStyle=1;align=center;verticalAlign=top;childLayout=stackLayout;horizontal=1;startSize=26;horizontalStack=0;resizeParent=1;resizeParentMax=0;resizeLast=0;collapsible=1;marginBottom=0;" parent="1" vertex="1">
          <mxGeometry x="390" y="1490" width="230" height="104" as="geometry" />
        </mxCell>
        <mxCell id="9I6hs4nXbi-sUa1rTmq4-113" value="+ headers: vector&lt;pair&lt;string, string&gt;&gt;" style="text;strokeColor=none;fillColor=none;align=left;verticalAlign=top;spacingLeft=4;spacingRight=4;overflow=hidden;rotatable=0;points=[[0,0.5],[1,0.5]];portConstraint=eastwest;" parent="9I6hs4nXbi-sUa1rTmq4-112" vertex="1">
          <mxGeometry y="26" width="230" height="26" as="geometry" />
        </mxCell>
        <mxCell id="9I6hs4nXbi-sUa1rTmq4-114" value="+ data: vector&lt;byte&gt;" style="text;strokeColor=none;fillColor=none;align=left;verticalAlign=top;spacingLeft=4;spacingRight=4;overflow=hidden;rotatable=0;points=[[0,0.5],[1,0.5]];portConstraint=eastwest;" parent="9I6hs4nXbi-sUa1rTmq4-112" vertex="1">
          <mxGeometry y="52" width="230" height="26" as="geometry" />
        </mxCell>
        <mxCell id="9I6hs4nXbi-sUa1rTmq4-137" value="+ statusCode: int" style="text;strokeColor=none;fillColor=none;align=left;verticalAlign=top;spacingLeft=4;spacingRight=4;overflow=hidden;rotatable=0;points=[[0,0.5],[1,0.5]];portConstraint=eastwest;" parent="9I6hs4nXbi-sUa1rTmq4-112" vertex="1">
          <mxGeometry y="78" width="230" height="26" as="geometry" />
        </mxCell>
        <mxCell id="9I6hs4nXbi-sUa1rTmq4-115" value="URLRequest" style="swimlane;fontStyle=1;align=center;verticalAlign=top;childLayout=stackLayout;horizontal=1;startSize=26;horizontalStack=0;resizeParent=1;resizeParentMax=0;resizeLast=0;collapsible=1;marginBottom=0;" parent="1" vertex="1">
          <mxGeometry x="-10" y="1480" width="226" height="130" as="geometry" />
        </mxCell>
        <mxCell id="9I6hs4nXbi-sUa1rTmq4-116" value="+ url: string" style="text;strokeColor=none;fillColor=none;align=left;verticalAlign=top;spacingLeft=4;spacingRight=4;overflow=hidden;rotatable=0;points=[[0,0.5],[1,0.5]];portConstraint=eastwest;" parent="9I6hs4nXbi-sUa1rTmq4-115" vertex="1">
          <mxGeometry y="26" width="226" height="26" as="geometry" />
        </mxCell>
        <mxCell id="9I6hs4nXbi-sUa1rTmq4-117" value="+ method: string" style="text;strokeColor=none;fillColor=none;align=left;verticalAlign=top;spacingLeft=4;spacingRight=4;overflow=hidden;rotatable=0;points=[[0,0.5],[1,0.5]];portConstraint=eastwest;" parent="9I6hs4nXbi-sUa1rTmq4-115" vertex="1">
          <mxGeometry y="52" width="226" height="26" as="geometry" />
        </mxCell>
        <mxCell id="9I6hs4nXbi-sUa1rTmq4-118" value="+ headers: vector&lt;pair&lt;string, string&gt;&gt;" style="text;strokeColor=none;fillColor=none;align=left;verticalAlign=top;spacingLeft=4;spacingRight=4;overflow=hidden;rotatable=0;points=[[0,0.5],[1,0.5]];portConstraint=eastwest;" parent="9I6hs4nXbi-sUa1rTmq4-115" vertex="1">
          <mxGeometry y="78" width="226" height="26" as="geometry" />
        </mxCell>
        <mxCell id="9I6hs4nXbi-sUa1rTmq4-119" value="+ body: vector&lt;byte&gt;" style="text;strokeColor=none;fillColor=none;align=left;verticalAlign=top;spacingLeft=4;spacingRight=4;overflow=hidden;rotatable=0;points=[[0,0.5],[1,0.5]];portConstraint=eastwest;" parent="9I6hs4nXbi-sUa1rTmq4-115" vertex="1">
          <mxGeometry y="104" width="226" height="26" as="geometry" />
        </mxCell>
        <mxCell id="9I6hs4nXbi-sUa1rTmq4-122" value="HTTPClientDecorator" style="swimlane;fontStyle=1;align=center;verticalAlign=top;childLayout=stackLayout;horizontal=1;startSize=26;horizontalStack=0;resizeParent=1;resizeParentMax=0;resizeLast=0;collapsible=1;marginBottom=0;fillColor=#dae8fc;strokeColor=#6c8ebf;" parent="1" vertex="1">
          <mxGeometry x="170" y="1791.5" width="330" height="86" as="geometry" />
        </mxCell>
        <mxCell id="9I6hs4nXbi-sUa1rTmq4-123" value="+ SendRequest(urlRequest: URLRequest): URLResponse" style="text;strokeColor=none;fillColor=none;align=left;verticalAlign=top;spacingLeft=4;spacingRight=4;overflow=hidden;rotatable=0;points=[[0,0.5],[1,0.5]];portConstraint=eastwest;" parent="9I6hs4nXbi-sUa1rTmq4-122" vertex="1">
          <mxGeometry y="26" width="330" height="26" as="geometry" />
        </mxCell>
        <mxCell id="9I6hs4nXbi-sUa1rTmq4-124" value="" style="line;strokeWidth=1;fillColor=none;align=left;verticalAlign=middle;spacingTop=-1;spacingLeft=3;spacingRight=3;rotatable=0;labelPosition=right;points=[];portConstraint=eastwest;html=1;" parent="9I6hs4nXbi-sUa1rTmq4-122" vertex="1">
          <mxGeometry y="52" width="330" height="8" as="geometry" />
        </mxCell>
        <mxCell id="9I6hs4nXbi-sUa1rTmq4-125" value="- m_wrappee:IHTTPClient" style="text;strokeColor=none;fillColor=none;align=left;verticalAlign=top;spacingLeft=4;spacingRight=4;overflow=hidden;rotatable=0;points=[[0,0.5],[1,0.5]];portConstraint=eastwest;" parent="9I6hs4nXbi-sUa1rTmq4-122" vertex="1">
          <mxGeometry y="60" width="330" height="26" as="geometry" />
        </mxCell>
        <mxCell id="9I6hs4nXbi-sUa1rTmq4-126" value="HTTPClient" style="swimlane;fontStyle=1;align=center;verticalAlign=top;childLayout=stackLayout;horizontal=1;startSize=26;horizontalStack=0;resizeParent=1;resizeParentMax=0;resizeLast=0;collapsible=1;marginBottom=0;" parent="1" vertex="1">
          <mxGeometry x="404" y="1660" width="330" height="52" as="geometry" />
        </mxCell>
        <mxCell id="9I6hs4nXbi-sUa1rTmq4-127" value="+ SendRequest(urlRequest: URLRequest): URLResponse" style="text;strokeColor=none;fillColor=none;align=left;verticalAlign=top;spacingLeft=4;spacingRight=4;overflow=hidden;rotatable=0;points=[[0,0.5],[1,0.5]];portConstraint=eastwest;" parent="9I6hs4nXbi-sUa1rTmq4-126" vertex="1">
          <mxGeometry y="26" width="330" height="26" as="geometry" />
        </mxCell>
        <mxCell id="9I6hs4nXbi-sUa1rTmq4-144" value="" style="endArrow=diamondThin;endFill=0;endSize=24;html=1;" parent="1" source="9I6hs4nXbi-sUa1rTmq4-140" target="9I6hs4nXbi-sUa1rTmq4-132" edge="1">
          <mxGeometry width="160" relative="1" as="geometry">
            <mxPoint x="-150" y="2100" as="sourcePoint" />
            <mxPoint x="10" y="2100" as="targetPoint" />
          </mxGeometry>
        </mxCell>
        <mxCell id="9I6hs4nXbi-sUa1rTmq4-145" value="" style="endArrow=diamondThin;endFill=0;endSize=24;html=1;" parent="1" source="9I6hs4nXbi-sUa1rTmq4-140" target="9I6hs4nXbi-sUa1rTmq4-128" edge="1">
          <mxGeometry width="160" relative="1" as="geometry">
            <mxPoint x="137.91095890410952" y="2100" as="sourcePoint" />
            <mxPoint x="52.431506849315156" y="2036" as="targetPoint" />
          </mxGeometry>
        </mxCell>
        <mxCell id="9I6hs4nXbi-sUa1rTmq4-146" value="Extends" style="endArrow=block;endSize=16;endFill=0;html=1;" parent="1" source="9I6hs4nXbi-sUa1rTmq4-132" target="9I6hs4nXbi-sUa1rTmq4-122" edge="1">
          <mxGeometry width="160" relative="1" as="geometry">
            <mxPoint x="352.10437710437736" y="1950" as="sourcePoint" />
            <mxPoint x="347.8956228956231" y="1887.5" as="targetPoint" />
          </mxGeometry>
        </mxCell>
        <mxCell id="9I6hs4nXbi-sUa1rTmq4-128" value="BearerAuthorizationDecorator" style="swimlane;fontStyle=1;align=center;verticalAlign=top;childLayout=stackLayout;horizontal=1;startSize=26;horizontalStack=0;resizeParent=1;resizeParentMax=0;resizeLast=0;collapsible=1;marginBottom=0;fillColor=#dae8fc;strokeColor=#6c8ebf;" parent="1" vertex="1">
          <mxGeometry x="430" y="1940" width="330" height="86" as="geometry" />
        </mxCell>
        <mxCell id="9I6hs4nXbi-sUa1rTmq4-129" value="+ SendRequest(urlRequest: URLRequest): URLResponse" style="text;strokeColor=none;fillColor=none;align=left;verticalAlign=top;spacingLeft=4;spacingRight=4;overflow=hidden;rotatable=0;points=[[0,0.5],[1,0.5]];portConstraint=eastwest;" parent="9I6hs4nXbi-sUa1rTmq4-128" vertex="1">
          <mxGeometry y="26" width="330" height="26" as="geometry" />
        </mxCell>
        <mxCell id="9I6hs4nXbi-sUa1rTmq4-130" value="" style="line;strokeWidth=1;fillColor=none;align=left;verticalAlign=middle;spacingTop=-1;spacingLeft=3;spacingRight=3;rotatable=0;labelPosition=right;points=[];portConstraint=eastwest;html=1;" parent="9I6hs4nXbi-sUa1rTmq4-128" vertex="1">
          <mxGeometry y="52" width="330" height="8" as="geometry" />
        </mxCell>
        <mxCell id="9I6hs4nXbi-sUa1rTmq4-131" value="- m_tokenStorage: TokenStorage" style="text;strokeColor=none;fillColor=none;align=left;verticalAlign=top;spacingLeft=4;spacingRight=4;overflow=hidden;rotatable=0;points=[[0,0.5],[1,0.5]];portConstraint=eastwest;" parent="9I6hs4nXbi-sUa1rTmq4-128" vertex="1">
          <mxGeometry y="60" width="330" height="26" as="geometry" />
        </mxCell>
        <mxCell id="9I6hs4nXbi-sUa1rTmq4-140" value="TokenStorage" style="swimlane;fontStyle=1;align=center;verticalAlign=top;childLayout=stackLayout;horizontal=1;startSize=26;horizontalStack=0;resizeParent=1;resizeParentMax=0;resizeLast=0;collapsible=1;marginBottom=0;html=1;fillColor=#dae8fc;strokeColor=#6c8ebf;" parent="1" vertex="1">
          <mxGeometry x="240" y="1900" width="134" height="78" as="geometry" />
        </mxCell>
        <mxCell id="9I6hs4nXbi-sUa1rTmq4-141" value="+ accessToken: string" style="text;strokeColor=none;fillColor=none;align=left;verticalAlign=top;spacingLeft=4;spacingRight=4;overflow=hidden;rotatable=0;points=[[0,0.5],[1,0.5]];portConstraint=eastwest;" parent="9I6hs4nXbi-sUa1rTmq4-140" vertex="1">
          <mxGeometry y="26" width="134" height="26" as="geometry" />
        </mxCell>
        <mxCell id="9I6hs4nXbi-sUa1rTmq4-143" value="+ refreshToken: string" style="text;strokeColor=none;fillColor=none;align=left;verticalAlign=top;spacingLeft=4;spacingRight=4;overflow=hidden;rotatable=0;points=[[0,0.5],[1,0.5]];portConstraint=eastwest;" parent="9I6hs4nXbi-sUa1rTmq4-140" vertex="1">
          <mxGeometry y="52" width="134" height="26" as="geometry" />
        </mxCell>
        <mxCell id="9I6hs4nXbi-sUa1rTmq4-132" value="TokenRefreshingDecorator" style="swimlane;fontStyle=1;align=center;verticalAlign=top;childLayout=stackLayout;horizontal=1;startSize=26;horizontalStack=0;resizeParent=1;resizeParentMax=0;resizeLast=0;collapsible=1;marginBottom=0;fillColor=#dae8fc;strokeColor=#6c8ebf;" parent="1" vertex="1">
          <mxGeometry x="-140" y="1950" width="330" height="86" as="geometry" />
        </mxCell>
        <mxCell id="9I6hs4nXbi-sUa1rTmq4-133" value="+ SendRequest(urlRequest: URLRequest): URLResponse" style="text;strokeColor=none;fillColor=none;align=left;verticalAlign=top;spacingLeft=4;spacingRight=4;overflow=hidden;rotatable=0;points=[[0,0.5],[1,0.5]];portConstraint=eastwest;" parent="9I6hs4nXbi-sUa1rTmq4-132" vertex="1">
          <mxGeometry y="26" width="330" height="26" as="geometry" />
        </mxCell>
        <mxCell id="9I6hs4nXbi-sUa1rTmq4-134" value="" style="line;strokeWidth=1;fillColor=none;align=left;verticalAlign=middle;spacingTop=-1;spacingLeft=3;spacingRight=3;rotatable=0;labelPosition=right;points=[];portConstraint=eastwest;html=1;" parent="9I6hs4nXbi-sUa1rTmq4-132" vertex="1">
          <mxGeometry y="52" width="330" height="8" as="geometry" />
        </mxCell>
        <mxCell id="9I6hs4nXbi-sUa1rTmq4-135" value="- m_tokenStorage: TokenStorage" style="text;strokeColor=none;fillColor=none;align=left;verticalAlign=top;spacingLeft=4;spacingRight=4;overflow=hidden;rotatable=0;points=[[0,0.5],[1,0.5]];portConstraint=eastwest;" parent="9I6hs4nXbi-sUa1rTmq4-132" vertex="1">
          <mxGeometry y="60" width="330" height="26" as="geometry" />
        </mxCell>
        <mxCell id="Qa1O-AV2vUnj4RljuBB4-1" value="&lt;div&gt;&lt;span style=&quot;font-weight: normal;&quot;&gt;&amp;lt;&amp;lt;Interface&amp;gt;&amp;gt;&lt;/span&gt;&lt;/div&gt;IBeverage" style="swimlane;fontStyle=3;align=center;verticalAlign=top;childLayout=stackLayout;horizontal=1;startSize=40;horizontalStack=0;resizeParent=1;resizeParentMax=0;resizeLast=0;collapsible=1;marginBottom=0;whiteSpace=wrap;html=1;" parent="1" vertex="1">
          <mxGeometry x="1180" y="20" width="160" height="92" as="geometry" />
        </mxCell>
        <mxCell id="Qa1O-AV2vUnj4RljuBB4-2" value="+GetDescription():string" style="text;strokeColor=none;fillColor=none;align=left;verticalAlign=top;spacingLeft=4;spacingRight=4;overflow=hidden;rotatable=0;points=[[0,0.5],[1,0.5]];portConstraint=eastwest;whiteSpace=wrap;html=1;fontStyle=2" parent="Qa1O-AV2vUnj4RljuBB4-1" vertex="1">
          <mxGeometry y="40" width="160" height="26" as="geometry" />
        </mxCell>
        <mxCell id="Qa1O-AV2vUnj4RljuBB4-4" value="+GetCost():double" style="text;strokeColor=none;fillColor=none;align=left;verticalAlign=top;spacingLeft=4;spacingRight=4;overflow=hidden;rotatable=0;points=[[0,0.5],[1,0.5]];portConstraint=eastwest;whiteSpace=wrap;html=1;fontStyle=2" parent="Qa1O-AV2vUnj4RljuBB4-1" vertex="1">
          <mxGeometry y="66" width="160" height="26" as="geometry" />
        </mxCell>
        <mxCell id="Qa1O-AV2vUnj4RljuBB4-5" value="Coffee" style="swimlane;fontStyle=1;align=center;verticalAlign=top;childLayout=stackLayout;horizontal=1;startSize=26;horizontalStack=0;resizeParent=1;resizeParentMax=0;resizeLast=0;collapsible=1;marginBottom=0;whiteSpace=wrap;html=1;" parent="1" vertex="1">
          <mxGeometry x="1080" y="160" width="100" height="52" as="geometry" />
        </mxCell>
        <mxCell id="Qa1O-AV2vUnj4RljuBB4-6" value="..." style="text;strokeColor=none;fillColor=none;align=left;verticalAlign=top;spacingLeft=4;spacingRight=4;overflow=hidden;rotatable=0;points=[[0,0.5],[1,0.5]];portConstraint=eastwest;whiteSpace=wrap;html=1;" parent="Qa1O-AV2vUnj4RljuBB4-5" vertex="1">
          <mxGeometry y="26" width="100" height="26" as="geometry" />
        </mxCell>
        <mxCell id="Qa1O-AV2vUnj4RljuBB4-9" value="Tea" style="swimlane;fontStyle=1;align=center;verticalAlign=top;childLayout=stackLayout;horizontal=1;startSize=26;horizontalStack=0;resizeParent=1;resizeParentMax=0;resizeLast=0;collapsible=1;marginBottom=0;whiteSpace=wrap;html=1;" parent="1" vertex="1">
          <mxGeometry x="1270" y="160" width="90" height="52" as="geometry" />
        </mxCell>
        <mxCell id="Qa1O-AV2vUnj4RljuBB4-10" value="..." style="text;strokeColor=none;fillColor=none;align=left;verticalAlign=top;spacingLeft=4;spacingRight=4;overflow=hidden;rotatable=0;points=[[0,0.5],[1,0.5]];portConstraint=eastwest;whiteSpace=wrap;html=1;" parent="Qa1O-AV2vUnj4RljuBB4-9" vertex="1">
          <mxGeometry y="26" width="90" height="26" as="geometry" />
        </mxCell>
        <mxCell id="Qa1O-AV2vUnj4RljuBB4-13" value="Capuccino" style="swimlane;fontStyle=1;align=center;verticalAlign=top;childLayout=stackLayout;horizontal=1;startSize=26;horizontalStack=0;resizeParent=1;resizeParentMax=0;resizeLast=0;collapsible=1;marginBottom=0;whiteSpace=wrap;html=1;" parent="1" vertex="1">
          <mxGeometry x="1020" y="275" width="100" height="52" as="geometry" />
        </mxCell>
        <mxCell id="Qa1O-AV2vUnj4RljuBB4-14" value="..." style="text;strokeColor=none;fillColor=none;align=left;verticalAlign=top;spacingLeft=4;spacingRight=4;overflow=hidden;rotatable=0;points=[[0,0.5],[1,0.5]];portConstraint=eastwest;whiteSpace=wrap;html=1;" parent="Qa1O-AV2vUnj4RljuBB4-13" vertex="1">
          <mxGeometry y="26" width="100" height="26" as="geometry" />
        </mxCell>
        <mxCell id="Qa1O-AV2vUnj4RljuBB4-15" value="Latte" style="swimlane;fontStyle=1;align=center;verticalAlign=top;childLayout=stackLayout;horizontal=1;startSize=26;horizontalStack=0;resizeParent=1;resizeParentMax=0;resizeLast=0;collapsible=1;marginBottom=0;whiteSpace=wrap;html=1;" parent="1" vertex="1">
          <mxGeometry x="1160" y="270" width="100" height="52" as="geometry" />
        </mxCell>
        <mxCell id="Qa1O-AV2vUnj4RljuBB4-16" value="..." style="text;strokeColor=none;fillColor=none;align=left;verticalAlign=top;spacingLeft=4;spacingRight=4;overflow=hidden;rotatable=0;points=[[0,0.5],[1,0.5]];portConstraint=eastwest;whiteSpace=wrap;html=1;" parent="Qa1O-AV2vUnj4RljuBB4-15" vertex="1">
          <mxGeometry y="26" width="100" height="26" as="geometry" />
        </mxCell>
        <mxCell id="Qa1O-AV2vUnj4RljuBB4-18" value="" style="endArrow=block;endSize=16;endFill=0;html=1;rounded=0;" parent="1" source="Qa1O-AV2vUnj4RljuBB4-13" target="Qa1O-AV2vUnj4RljuBB4-5" edge="1">
          <mxGeometry width="160" relative="1" as="geometry">
            <mxPoint x="1000" y="281.17352941176466" as="sourcePoint" />
            <mxPoint x="1130" y="219.9970588235294" as="targetPoint" />
          </mxGeometry>
        </mxCell>
        <mxCell id="Qa1O-AV2vUnj4RljuBB4-19" value="MilkShake" style="swimlane;fontStyle=1;align=center;verticalAlign=top;childLayout=stackLayout;horizontal=1;startSize=26;horizontalStack=0;resizeParent=1;resizeParentMax=0;resizeLast=0;collapsible=1;marginBottom=0;whiteSpace=wrap;html=1;" parent="1" vertex="1">
          <mxGeometry x="1420" y="160" width="100" height="52" as="geometry" />
        </mxCell>
        <mxCell id="Qa1O-AV2vUnj4RljuBB4-20" value="..." style="text;strokeColor=none;fillColor=none;align=left;verticalAlign=top;spacingLeft=4;spacingRight=4;overflow=hidden;rotatable=0;points=[[0,0.5],[1,0.5]];portConstraint=eastwest;whiteSpace=wrap;html=1;" parent="Qa1O-AV2vUnj4RljuBB4-19" vertex="1">
          <mxGeometry y="26" width="100" height="26" as="geometry" />
        </mxCell>
        <mxCell id="Qa1O-AV2vUnj4RljuBB4-17" value="" style="endArrow=block;endSize=16;endFill=0;html=1;rounded=0;" parent="1" source="Qa1O-AV2vUnj4RljuBB4-15" target="Qa1O-AV2vUnj4RljuBB4-5" edge="1">
          <mxGeometry width="160" relative="1" as="geometry">
            <mxPoint x="1183.9966666666664" y="306" as="sourcePoint" />
            <mxPoint x="1235.9966666666664" y="258" as="targetPoint" />
          </mxGeometry>
        </mxCell>
        <mxCell id="Qa1O-AV2vUnj4RljuBB4-21" value="" style="endArrow=block;dashed=1;endFill=0;endSize=12;html=1;rounded=0;" parent="1" source="Qa1O-AV2vUnj4RljuBB4-5" target="Qa1O-AV2vUnj4RljuBB4-1" edge="1">
          <mxGeometry width="160" relative="1" as="geometry">
            <mxPoint x="1000" y="130" as="sourcePoint" />
            <mxPoint x="1160" y="130" as="targetPoint" />
          </mxGeometry>
        </mxCell>
        <mxCell id="Qa1O-AV2vUnj4RljuBB4-22" value="" style="endArrow=block;dashed=1;endFill=0;endSize=12;html=1;rounded=0;" parent="1" source="Qa1O-AV2vUnj4RljuBB4-19" target="Qa1O-AV2vUnj4RljuBB4-1" edge="1">
          <mxGeometry width="160" relative="1" as="geometry">
            <mxPoint x="1168" y="170" as="sourcePoint" />
            <mxPoint x="1220" y="122" as="targetPoint" />
          </mxGeometry>
        </mxCell>
        <mxCell id="Qa1O-AV2vUnj4RljuBB4-23" value="" style="endArrow=block;dashed=1;endFill=0;endSize=12;html=1;rounded=0;" parent="1" source="Qa1O-AV2vUnj4RljuBB4-9" target="Qa1O-AV2vUnj4RljuBB4-1" edge="1">
          <mxGeometry width="160" relative="1" as="geometry">
            <mxPoint x="1168" y="170" as="sourcePoint" />
            <mxPoint x="1220" y="122" as="targetPoint" />
          </mxGeometry>
        </mxCell>
        <mxCell id="Qa1O-AV2vUnj4RljuBB4-24" value="TeaWithIce" style="swimlane;fontStyle=1;align=center;verticalAlign=top;childLayout=stackLayout;horizontal=1;startSize=26;horizontalStack=0;resizeParent=1;resizeParentMax=0;resizeLast=0;collapsible=1;marginBottom=0;whiteSpace=wrap;html=1;fillColor=#d5e8d4;strokeColor=#82b366;" parent="1" vertex="1">
          <mxGeometry x="1430" y="686" width="80" height="52" as="geometry" />
        </mxCell>
        <mxCell id="Qa1O-AV2vUnj4RljuBB4-25" value="..." style="text;strokeColor=none;fillColor=none;align=left;verticalAlign=top;spacingLeft=4;spacingRight=4;overflow=hidden;rotatable=0;points=[[0,0.5],[1,0.5]];portConstraint=eastwest;whiteSpace=wrap;html=1;" parent="Qa1O-AV2vUnj4RljuBB4-24" vertex="1">
          <mxGeometry y="26" width="80" height="26" as="geometry" />
        </mxCell>
        <mxCell id="Qa1O-AV2vUnj4RljuBB4-26" value="&lt;div&gt;&lt;span style=&quot;font-weight: normal;&quot;&gt;&amp;lt;&amp;lt;Interface&amp;gt;&amp;gt;&lt;/span&gt;&lt;/div&gt;IBeverage" style="swimlane;fontStyle=3;align=center;verticalAlign=top;childLayout=stackLayout;horizontal=1;startSize=40;horizontalStack=0;resizeParent=1;resizeParentMax=0;resizeLast=0;collapsible=1;marginBottom=0;whiteSpace=wrap;html=1;" parent="1" vertex="1">
          <mxGeometry x="1310" y="431" width="160" height="92" as="geometry" />
        </mxCell>
        <mxCell id="Qa1O-AV2vUnj4RljuBB4-27" value="+GetDescription():string" style="text;strokeColor=none;fillColor=none;align=left;verticalAlign=top;spacingLeft=4;spacingRight=4;overflow=hidden;rotatable=0;points=[[0,0.5],[1,0.5]];portConstraint=eastwest;whiteSpace=wrap;html=1;fontStyle=2" parent="Qa1O-AV2vUnj4RljuBB4-26" vertex="1">
          <mxGeometry y="40" width="160" height="26" as="geometry" />
        </mxCell>
        <mxCell id="Qa1O-AV2vUnj4RljuBB4-28" value="+GetCost():double" style="text;strokeColor=none;fillColor=none;align=left;verticalAlign=top;spacingLeft=4;spacingRight=4;overflow=hidden;rotatable=0;points=[[0,0.5],[1,0.5]];portConstraint=eastwest;whiteSpace=wrap;html=1;fontStyle=2" parent="Qa1O-AV2vUnj4RljuBB4-26" vertex="1">
          <mxGeometry y="66" width="160" height="26" as="geometry" />
        </mxCell>
        <mxCell id="Qa1O-AV2vUnj4RljuBB4-29" value="Coffee" style="swimlane;fontStyle=1;align=center;verticalAlign=top;childLayout=stackLayout;horizontal=1;startSize=26;horizontalStack=0;resizeParent=1;resizeParentMax=0;resizeLast=0;collapsible=1;marginBottom=0;whiteSpace=wrap;html=1;" parent="1" vertex="1">
          <mxGeometry x="1210" y="571" width="100" height="52" as="geometry" />
        </mxCell>
        <mxCell id="Qa1O-AV2vUnj4RljuBB4-30" value="..." style="text;strokeColor=none;fillColor=none;align=left;verticalAlign=top;spacingLeft=4;spacingRight=4;overflow=hidden;rotatable=0;points=[[0,0.5],[1,0.5]];portConstraint=eastwest;whiteSpace=wrap;html=1;" parent="Qa1O-AV2vUnj4RljuBB4-29" vertex="1">
          <mxGeometry y="26" width="100" height="26" as="geometry" />
        </mxCell>
        <mxCell id="Qa1O-AV2vUnj4RljuBB4-31" value="Tea" style="swimlane;fontStyle=1;align=center;verticalAlign=top;childLayout=stackLayout;horizontal=1;startSize=26;horizontalStack=0;resizeParent=1;resizeParentMax=0;resizeLast=0;collapsible=1;marginBottom=0;whiteSpace=wrap;html=1;" parent="1" vertex="1">
          <mxGeometry x="1400" y="571" width="90" height="52" as="geometry" />
        </mxCell>
        <mxCell id="Qa1O-AV2vUnj4RljuBB4-32" value="..." style="text;strokeColor=none;fillColor=none;align=left;verticalAlign=top;spacingLeft=4;spacingRight=4;overflow=hidden;rotatable=0;points=[[0,0.5],[1,0.5]];portConstraint=eastwest;whiteSpace=wrap;html=1;" parent="Qa1O-AV2vUnj4RljuBB4-31" vertex="1">
          <mxGeometry y="26" width="90" height="26" as="geometry" />
        </mxCell>
        <mxCell id="Qa1O-AV2vUnj4RljuBB4-33" value="Capuccino" style="swimlane;fontStyle=1;align=center;verticalAlign=top;childLayout=stackLayout;horizontal=1;startSize=26;horizontalStack=0;resizeParent=1;resizeParentMax=0;resizeLast=0;collapsible=1;marginBottom=0;whiteSpace=wrap;html=1;" parent="1" vertex="1">
          <mxGeometry x="1150" y="686" width="100" height="52" as="geometry" />
        </mxCell>
        <mxCell id="Qa1O-AV2vUnj4RljuBB4-34" value="..." style="text;strokeColor=none;fillColor=none;align=left;verticalAlign=top;spacingLeft=4;spacingRight=4;overflow=hidden;rotatable=0;points=[[0,0.5],[1,0.5]];portConstraint=eastwest;whiteSpace=wrap;html=1;" parent="Qa1O-AV2vUnj4RljuBB4-33" vertex="1">
          <mxGeometry y="26" width="100" height="26" as="geometry" />
        </mxCell>
        <mxCell id="Qa1O-AV2vUnj4RljuBB4-35" value="Latte" style="swimlane;fontStyle=1;align=center;verticalAlign=top;childLayout=stackLayout;horizontal=1;startSize=26;horizontalStack=0;resizeParent=1;resizeParentMax=0;resizeLast=0;collapsible=1;marginBottom=0;whiteSpace=wrap;html=1;" parent="1" vertex="1">
          <mxGeometry x="1290" y="681" width="100" height="52" as="geometry" />
        </mxCell>
        <mxCell id="Qa1O-AV2vUnj4RljuBB4-36" value="..." style="text;strokeColor=none;fillColor=none;align=left;verticalAlign=top;spacingLeft=4;spacingRight=4;overflow=hidden;rotatable=0;points=[[0,0.5],[1,0.5]];portConstraint=eastwest;whiteSpace=wrap;html=1;" parent="Qa1O-AV2vUnj4RljuBB4-35" vertex="1">
          <mxGeometry y="26" width="100" height="26" as="geometry" />
        </mxCell>
        <mxCell id="Qa1O-AV2vUnj4RljuBB4-37" value="" style="endArrow=block;endSize=16;endFill=0;html=1;rounded=0;" parent="1" source="Qa1O-AV2vUnj4RljuBB4-33" target="Qa1O-AV2vUnj4RljuBB4-29" edge="1">
          <mxGeometry width="160" relative="1" as="geometry">
            <mxPoint x="1130" y="692.1735294117647" as="sourcePoint" />
            <mxPoint x="1260" y="630.9970588235294" as="targetPoint" />
          </mxGeometry>
        </mxCell>
        <mxCell id="Qa1O-AV2vUnj4RljuBB4-38" value="MilkShake" style="swimlane;fontStyle=1;align=center;verticalAlign=top;childLayout=stackLayout;horizontal=1;startSize=26;horizontalStack=0;resizeParent=1;resizeParentMax=0;resizeLast=0;collapsible=1;marginBottom=0;whiteSpace=wrap;html=1;" parent="1" vertex="1">
          <mxGeometry x="1550" y="571" width="100" height="52" as="geometry" />
        </mxCell>
        <mxCell id="Qa1O-AV2vUnj4RljuBB4-39" value="..." style="text;strokeColor=none;fillColor=none;align=left;verticalAlign=top;spacingLeft=4;spacingRight=4;overflow=hidden;rotatable=0;points=[[0,0.5],[1,0.5]];portConstraint=eastwest;whiteSpace=wrap;html=1;" parent="Qa1O-AV2vUnj4RljuBB4-38" vertex="1">
          <mxGeometry y="26" width="100" height="26" as="geometry" />
        </mxCell>
        <mxCell id="Qa1O-AV2vUnj4RljuBB4-40" value="" style="endArrow=block;endSize=16;endFill=0;html=1;rounded=0;" parent="1" source="Qa1O-AV2vUnj4RljuBB4-35" target="Qa1O-AV2vUnj4RljuBB4-29" edge="1">
          <mxGeometry width="160" relative="1" as="geometry">
            <mxPoint x="1313.9966666666664" y="717" as="sourcePoint" />
            <mxPoint x="1365.9966666666664" y="669" as="targetPoint" />
          </mxGeometry>
        </mxCell>
        <mxCell id="Qa1O-AV2vUnj4RljuBB4-41" value="" style="endArrow=block;dashed=1;endFill=0;endSize=12;html=1;rounded=0;" parent="1" source="Qa1O-AV2vUnj4RljuBB4-29" target="Qa1O-AV2vUnj4RljuBB4-26" edge="1">
          <mxGeometry width="160" relative="1" as="geometry">
            <mxPoint x="1130" y="541" as="sourcePoint" />
            <mxPoint x="1290" y="541" as="targetPoint" />
          </mxGeometry>
        </mxCell>
        <mxCell id="Qa1O-AV2vUnj4RljuBB4-42" value="" style="endArrow=block;dashed=1;endFill=0;endSize=12;html=1;rounded=0;" parent="1" source="Qa1O-AV2vUnj4RljuBB4-38" target="Qa1O-AV2vUnj4RljuBB4-26" edge="1">
          <mxGeometry width="160" relative="1" as="geometry">
            <mxPoint x="1298" y="581" as="sourcePoint" />
            <mxPoint x="1350" y="533" as="targetPoint" />
          </mxGeometry>
        </mxCell>
        <mxCell id="Qa1O-AV2vUnj4RljuBB4-43" value="" style="endArrow=block;dashed=1;endFill=0;endSize=12;html=1;rounded=0;" parent="1" source="Qa1O-AV2vUnj4RljuBB4-31" target="Qa1O-AV2vUnj4RljuBB4-26" edge="1">
          <mxGeometry width="160" relative="1" as="geometry">
            <mxPoint x="1298" y="581" as="sourcePoint" />
            <mxPoint x="1350" y="533" as="targetPoint" />
          </mxGeometry>
        </mxCell>
        <mxCell id="Qa1O-AV2vUnj4RljuBB4-44" value="" style="endArrow=block;endSize=16;endFill=0;html=1;rounded=0;" parent="1" source="Qa1O-AV2vUnj4RljuBB4-24" target="Qa1O-AV2vUnj4RljuBB4-31" edge="1">
          <mxGeometry width="160" relative="1" as="geometry">
            <mxPoint x="1331" y="691" as="sourcePoint" />
            <mxPoint x="1289" y="633" as="targetPoint" />
          </mxGeometry>
        </mxCell>
        <mxCell id="Qa1O-AV2vUnj4RljuBB4-45" value="" style="endArrow=block;endSize=16;endFill=0;html=1;rounded=0;" parent="1" source="Qa1O-AV2vUnj4RljuBB4-46" target="Qa1O-AV2vUnj4RljuBB4-31" edge="1">
          <mxGeometry width="160" relative="1" as="geometry">
            <mxPoint x="1680" y="700" as="sourcePoint" />
            <mxPoint x="1640" y="633" as="targetPoint" />
          </mxGeometry>
        </mxCell>
        <mxCell id="Qa1O-AV2vUnj4RljuBB4-46" value="TeaWithLeamon" style="swimlane;fontStyle=1;align=center;verticalAlign=top;childLayout=stackLayout;horizontal=1;startSize=26;horizontalStack=0;resizeParent=1;resizeParentMax=0;resizeLast=0;collapsible=1;marginBottom=0;whiteSpace=wrap;html=1;fillColor=#d5e8d4;strokeColor=#82b366;" parent="1" vertex="1">
          <mxGeometry x="1520" y="686" width="110" height="52" as="geometry" />
        </mxCell>
        <mxCell id="Qa1O-AV2vUnj4RljuBB4-47" value="..." style="text;strokeColor=none;fillColor=none;align=left;verticalAlign=top;spacingLeft=4;spacingRight=4;overflow=hidden;rotatable=0;points=[[0,0.5],[1,0.5]];portConstraint=eastwest;whiteSpace=wrap;html=1;" parent="Qa1O-AV2vUnj4RljuBB4-46" vertex="1">
          <mxGeometry y="26" width="110" height="26" as="geometry" />
        </mxCell>
        <mxCell id="Qa1O-AV2vUnj4RljuBB4-48" value="TeaWithLeamonAndIce" style="swimlane;fontStyle=1;align=center;verticalAlign=top;childLayout=stackLayout;horizontal=1;startSize=26;horizontalStack=0;resizeParent=1;resizeParentMax=0;resizeLast=0;collapsible=1;marginBottom=0;whiteSpace=wrap;html=1;fillColor=#d5e8d4;strokeColor=#82b366;" parent="1" vertex="1">
          <mxGeometry x="1640" y="686" width="140" height="52" as="geometry" />
        </mxCell>
        <mxCell id="Qa1O-AV2vUnj4RljuBB4-49" value="..." style="text;strokeColor=none;fillColor=none;align=left;verticalAlign=top;spacingLeft=4;spacingRight=4;overflow=hidden;rotatable=0;points=[[0,0.5],[1,0.5]];portConstraint=eastwest;whiteSpace=wrap;html=1;" parent="Qa1O-AV2vUnj4RljuBB4-48" vertex="1">
          <mxGeometry y="26" width="140" height="26" as="geometry" />
        </mxCell>
        <mxCell id="Qa1O-AV2vUnj4RljuBB4-50" value="" style="endArrow=block;endSize=16;endFill=0;html=1;rounded=0;" parent="1" source="Qa1O-AV2vUnj4RljuBB4-48" target="Qa1O-AV2vUnj4RljuBB4-31" edge="1">
          <mxGeometry width="160" relative="1" as="geometry">
            <mxPoint x="1614" y="696" as="sourcePoint" />
            <mxPoint x="1500" y="632" as="targetPoint" />
          </mxGeometry>
        </mxCell>
        <mxCell id="Qa1O-AV2vUnj4RljuBB4-51" value="..." style="swimlane;fontStyle=1;align=center;verticalAlign=top;childLayout=stackLayout;horizontal=1;startSize=26;horizontalStack=0;resizeParent=1;resizeParentMax=0;resizeLast=0;collapsible=1;marginBottom=0;whiteSpace=wrap;html=1;fillColor=#d5e8d4;strokeColor=#82b366;" parent="1" vertex="1">
          <mxGeometry x="1310" y="798" width="80" height="52" as="geometry" />
        </mxCell>
        <mxCell id="Qa1O-AV2vUnj4RljuBB4-52" value="..." style="text;strokeColor=none;fillColor=none;align=left;verticalAlign=top;spacingLeft=4;spacingRight=4;overflow=hidden;rotatable=0;points=[[0,0.5],[1,0.5]];portConstraint=eastwest;whiteSpace=wrap;html=1;" parent="Qa1O-AV2vUnj4RljuBB4-51" vertex="1">
          <mxGeometry y="26" width="80" height="26" as="geometry" />
        </mxCell>
        <mxCell id="Qa1O-AV2vUnj4RljuBB4-53" value="" style="endArrow=block;endSize=16;endFill=0;html=1;rounded=0;" parent="1" source="Qa1O-AV2vUnj4RljuBB4-51" target="Qa1O-AV2vUnj4RljuBB4-35" edge="1">
          <mxGeometry width="160" relative="1" as="geometry">
            <mxPoint x="1474" y="696" as="sourcePoint" />
            <mxPoint x="1461" y="633" as="targetPoint" />
          </mxGeometry>
        </mxCell>
        <mxCell id="Qa1O-AV2vUnj4RljuBB4-54" value="" style="endArrow=block;endSize=16;endFill=0;html=1;rounded=0;" parent="1" source="Qa1O-AV2vUnj4RljuBB4-55" target="Qa1O-AV2vUnj4RljuBB4-33" edge="1">
          <mxGeometry width="160" relative="1" as="geometry">
            <mxPoint x="1377" y="808" as="sourcePoint" />
            <mxPoint x="1358" y="743" as="targetPoint" />
          </mxGeometry>
        </mxCell>
        <mxCell id="Qa1O-AV2vUnj4RljuBB4-55" value="..." style="swimlane;fontStyle=1;align=center;verticalAlign=top;childLayout=stackLayout;horizontal=1;startSize=26;horizontalStack=0;resizeParent=1;resizeParentMax=0;resizeLast=0;collapsible=1;marginBottom=0;whiteSpace=wrap;html=1;fillColor=#d5e8d4;strokeColor=#82b366;" parent="1" vertex="1">
          <mxGeometry x="1200" y="798" width="70" height="52" as="geometry" />
        </mxCell>
        <mxCell id="Qa1O-AV2vUnj4RljuBB4-56" value="..." style="text;strokeColor=none;fillColor=none;align=left;verticalAlign=top;spacingLeft=4;spacingRight=4;overflow=hidden;rotatable=0;points=[[0,0.5],[1,0.5]];portConstraint=eastwest;whiteSpace=wrap;html=1;" parent="Qa1O-AV2vUnj4RljuBB4-55" vertex="1">
          <mxGeometry y="26" width="70" height="26" as="geometry" />
        </mxCell>
        <mxCell id="Qa1O-AV2vUnj4RljuBB4-59" value="..." style="swimlane;fontStyle=1;align=center;verticalAlign=top;childLayout=stackLayout;horizontal=1;startSize=26;horizontalStack=0;resizeParent=1;resizeParentMax=0;resizeLast=0;collapsible=1;marginBottom=0;whiteSpace=wrap;html=1;fillColor=#d5e8d4;strokeColor=#82b366;" parent="1" vertex="1">
          <mxGeometry x="1410" y="798" width="80" height="52" as="geometry" />
        </mxCell>
        <mxCell id="Qa1O-AV2vUnj4RljuBB4-60" value="..." style="text;strokeColor=none;fillColor=none;align=left;verticalAlign=top;spacingLeft=4;spacingRight=4;overflow=hidden;rotatable=0;points=[[0,0.5],[1,0.5]];portConstraint=eastwest;whiteSpace=wrap;html=1;" parent="Qa1O-AV2vUnj4RljuBB4-59" vertex="1">
          <mxGeometry y="26" width="80" height="26" as="geometry" />
        </mxCell>
        <mxCell id="Qa1O-AV2vUnj4RljuBB4-61" value="" style="endArrow=block;endSize=16;endFill=0;html=1;rounded=0;" parent="1" source="Qa1O-AV2vUnj4RljuBB4-59" target="Qa1O-AV2vUnj4RljuBB4-35" edge="1">
          <mxGeometry width="160" relative="1" as="geometry">
            <mxPoint x="1474" y="696" as="sourcePoint" />
            <mxPoint x="1461" y="633" as="targetPoint" />
          </mxGeometry>
        </mxCell>
        <mxCell id="Qa1O-AV2vUnj4RljuBB4-63" value="..." style="swimlane;fontStyle=1;align=center;verticalAlign=top;childLayout=stackLayout;horizontal=1;startSize=26;horizontalStack=0;resizeParent=1;resizeParentMax=0;resizeLast=0;collapsible=1;marginBottom=0;whiteSpace=wrap;html=1;fillColor=#d5e8d4;strokeColor=#82b366;" parent="1" vertex="1">
          <mxGeometry x="1510" y="798" width="80" height="52" as="geometry" />
        </mxCell>
        <mxCell id="Qa1O-AV2vUnj4RljuBB4-64" value="..." style="text;strokeColor=none;fillColor=none;align=left;verticalAlign=top;spacingLeft=4;spacingRight=4;overflow=hidden;rotatable=0;points=[[0,0.5],[1,0.5]];portConstraint=eastwest;whiteSpace=wrap;html=1;" parent="Qa1O-AV2vUnj4RljuBB4-63" vertex="1">
          <mxGeometry y="26" width="80" height="26" as="geometry" />
        </mxCell>
        <mxCell id="Qa1O-AV2vUnj4RljuBB4-65" value="" style="endArrow=block;endSize=16;endFill=0;html=1;rounded=0;" parent="1" source="Qa1O-AV2vUnj4RljuBB4-63" target="Qa1O-AV2vUnj4RljuBB4-35" edge="1">
          <mxGeometry width="160" relative="1" as="geometry">
            <mxPoint x="1474" y="696" as="sourcePoint" />
            <mxPoint x="1461" y="633" as="targetPoint" />
          </mxGeometry>
        </mxCell>
        <mxCell id="Qa1O-AV2vUnj4RljuBB4-66" value="..." style="swimlane;fontStyle=1;align=center;verticalAlign=top;childLayout=stackLayout;horizontal=1;startSize=26;horizontalStack=0;resizeParent=1;resizeParentMax=0;resizeLast=0;collapsible=1;marginBottom=0;whiteSpace=wrap;html=1;fillColor=#d5e8d4;strokeColor=#82b366;" parent="1" vertex="1">
          <mxGeometry x="1110" y="798" width="70" height="52" as="geometry" />
        </mxCell>
        <mxCell id="Qa1O-AV2vUnj4RljuBB4-67" value="..." style="text;strokeColor=none;fillColor=none;align=left;verticalAlign=top;spacingLeft=4;spacingRight=4;overflow=hidden;rotatable=0;points=[[0,0.5],[1,0.5]];portConstraint=eastwest;whiteSpace=wrap;html=1;" parent="Qa1O-AV2vUnj4RljuBB4-66" vertex="1">
          <mxGeometry y="26" width="70" height="26" as="geometry" />
        </mxCell>
        <mxCell id="Qa1O-AV2vUnj4RljuBB4-68" value="..." style="swimlane;fontStyle=1;align=center;verticalAlign=top;childLayout=stackLayout;horizontal=1;startSize=26;horizontalStack=0;resizeParent=1;resizeParentMax=0;resizeLast=0;collapsible=1;marginBottom=0;whiteSpace=wrap;html=1;fillColor=#d5e8d4;strokeColor=#82b366;" parent="1" vertex="1">
          <mxGeometry x="1020" y="798" width="70" height="52" as="geometry" />
        </mxCell>
        <mxCell id="Qa1O-AV2vUnj4RljuBB4-69" value="..." style="text;strokeColor=none;fillColor=none;align=left;verticalAlign=top;spacingLeft=4;spacingRight=4;overflow=hidden;rotatable=0;points=[[0,0.5],[1,0.5]];portConstraint=eastwest;whiteSpace=wrap;html=1;" parent="Qa1O-AV2vUnj4RljuBB4-68" vertex="1">
          <mxGeometry y="26" width="70" height="26" as="geometry" />
        </mxCell>
        <mxCell id="Qa1O-AV2vUnj4RljuBB4-70" value="" style="endArrow=block;endSize=16;endFill=0;html=1;rounded=0;" parent="1" source="Qa1O-AV2vUnj4RljuBB4-66" target="Qa1O-AV2vUnj4RljuBB4-33" edge="1">
          <mxGeometry width="160" relative="1" as="geometry">
            <mxPoint x="1377" y="808" as="sourcePoint" />
            <mxPoint x="1358" y="743" as="targetPoint" />
          </mxGeometry>
        </mxCell>
        <mxCell id="Qa1O-AV2vUnj4RljuBB4-71" value="" style="endArrow=block;endSize=16;endFill=0;html=1;rounded=0;" parent="1" source="Qa1O-AV2vUnj4RljuBB4-68" target="Qa1O-AV2vUnj4RljuBB4-33" edge="1">
          <mxGeometry width="160" relative="1" as="geometry">
            <mxPoint x="1377" y="808" as="sourcePoint" />
            <mxPoint x="1358" y="743" as="targetPoint" />
          </mxGeometry>
        </mxCell>
        <mxCell id="Qa1O-AV2vUnj4RljuBB4-72" value="..." style="swimlane;fontStyle=1;align=center;verticalAlign=top;childLayout=stackLayout;horizontal=1;startSize=26;horizontalStack=0;resizeParent=1;resizeParentMax=0;resizeLast=0;collapsible=1;marginBottom=0;whiteSpace=wrap;html=1;fillColor=#d5e8d4;strokeColor=#82b366;" parent="1" vertex="1">
          <mxGeometry x="1050" y="700" width="70" height="52" as="geometry" />
        </mxCell>
        <mxCell id="Qa1O-AV2vUnj4RljuBB4-73" value="..." style="text;strokeColor=none;fillColor=none;align=left;verticalAlign=top;spacingLeft=4;spacingRight=4;overflow=hidden;rotatable=0;points=[[0,0.5],[1,0.5]];portConstraint=eastwest;whiteSpace=wrap;html=1;" parent="Qa1O-AV2vUnj4RljuBB4-72" vertex="1">
          <mxGeometry y="26" width="70" height="26" as="geometry" />
        </mxCell>
        <mxCell id="Qa1O-AV2vUnj4RljuBB4-74" value="" style="endArrow=block;endSize=16;endFill=0;html=1;rounded=0;" parent="1" source="Qa1O-AV2vUnj4RljuBB4-72" target="Qa1O-AV2vUnj4RljuBB4-29" edge="1">
          <mxGeometry width="160" relative="1" as="geometry">
            <mxPoint x="1130" y="692.1735294117647" as="sourcePoint" />
            <mxPoint x="1260" y="630.9970588235294" as="targetPoint" />
          </mxGeometry>
        </mxCell>
        <mxCell id="Qa1O-AV2vUnj4RljuBB4-75" value="..." style="swimlane;fontStyle=1;align=center;verticalAlign=top;childLayout=stackLayout;horizontal=1;startSize=26;horizontalStack=0;resizeParent=1;resizeParentMax=0;resizeLast=0;collapsible=1;marginBottom=0;whiteSpace=wrap;html=1;fillColor=#d5e8d4;strokeColor=#82b366;" parent="1" vertex="1">
          <mxGeometry x="960" y="686" width="70" height="52" as="geometry" />
        </mxCell>
        <mxCell id="Qa1O-AV2vUnj4RljuBB4-76" value="..." style="text;strokeColor=none;fillColor=none;align=left;verticalAlign=top;spacingLeft=4;spacingRight=4;overflow=hidden;rotatable=0;points=[[0,0.5],[1,0.5]];portConstraint=eastwest;whiteSpace=wrap;html=1;" parent="Qa1O-AV2vUnj4RljuBB4-75" vertex="1">
          <mxGeometry y="26" width="70" height="26" as="geometry" />
        </mxCell>
        <mxCell id="Qa1O-AV2vUnj4RljuBB4-77" value="" style="endArrow=block;endSize=16;endFill=0;html=1;rounded=0;" parent="1" source="Qa1O-AV2vUnj4RljuBB4-75" target="Qa1O-AV2vUnj4RljuBB4-29" edge="1">
          <mxGeometry width="160" relative="1" as="geometry">
            <mxPoint x="1130" y="692.1735294117647" as="sourcePoint" />
            <mxPoint x="1260" y="630.9970588235294" as="targetPoint" />
          </mxGeometry>
        </mxCell>
        <mxCell id="Qa1O-AV2vUnj4RljuBB4-78" value="..." style="swimlane;fontStyle=1;align=center;verticalAlign=top;childLayout=stackLayout;horizontal=1;startSize=26;horizontalStack=0;resizeParent=1;resizeParentMax=0;resizeLast=0;collapsible=1;marginBottom=0;whiteSpace=wrap;html=1;fillColor=#d5e8d4;strokeColor=#82b366;" parent="1" vertex="1">
          <mxGeometry x="960" y="620" width="70" height="52" as="geometry" />
        </mxCell>
        <mxCell id="Qa1O-AV2vUnj4RljuBB4-79" value="..." style="text;strokeColor=none;fillColor=none;align=left;verticalAlign=top;spacingLeft=4;spacingRight=4;overflow=hidden;rotatable=0;points=[[0,0.5],[1,0.5]];portConstraint=eastwest;whiteSpace=wrap;html=1;" parent="Qa1O-AV2vUnj4RljuBB4-78" vertex="1">
          <mxGeometry y="26" width="70" height="26" as="geometry" />
        </mxCell>
        <mxCell id="Qa1O-AV2vUnj4RljuBB4-80" value="" style="endArrow=block;endSize=16;endFill=0;html=1;rounded=0;" parent="1" source="Qa1O-AV2vUnj4RljuBB4-78" target="Qa1O-AV2vUnj4RljuBB4-29" edge="1">
          <mxGeometry width="160" relative="1" as="geometry">
            <mxPoint x="1130" y="692.1735294117647" as="sourcePoint" />
            <mxPoint x="1260" y="630.9970588235294" as="targetPoint" />
          </mxGeometry>
        </mxCell>
        <mxCell id="Qa1O-AV2vUnj4RljuBB4-81" value="..." style="swimlane;fontStyle=1;align=center;verticalAlign=top;childLayout=stackLayout;horizontal=1;startSize=26;horizontalStack=0;resizeParent=1;resizeParentMax=0;resizeLast=0;collapsible=1;marginBottom=0;whiteSpace=wrap;html=1;fillColor=#d5e8d4;strokeColor=#82b366;" parent="1" vertex="1">
          <mxGeometry x="1700" y="620" width="80" height="52" as="geometry" />
        </mxCell>
        <mxCell id="Qa1O-AV2vUnj4RljuBB4-82" value="..." style="text;strokeColor=none;fillColor=none;align=left;verticalAlign=top;spacingLeft=4;spacingRight=4;overflow=hidden;rotatable=0;points=[[0,0.5],[1,0.5]];portConstraint=eastwest;whiteSpace=wrap;html=1;" parent="Qa1O-AV2vUnj4RljuBB4-81" vertex="1">
          <mxGeometry y="26" width="80" height="26" as="geometry" />
        </mxCell>
        <mxCell id="Qa1O-AV2vUnj4RljuBB4-83" value="..." style="swimlane;fontStyle=1;align=center;verticalAlign=top;childLayout=stackLayout;horizontal=1;startSize=26;horizontalStack=0;resizeParent=1;resizeParentMax=0;resizeLast=0;collapsible=1;marginBottom=0;whiteSpace=wrap;html=1;fillColor=#d5e8d4;strokeColor=#82b366;" parent="1" vertex="1">
          <mxGeometry x="1760" y="559" width="80" height="52" as="geometry" />
        </mxCell>
        <mxCell id="Qa1O-AV2vUnj4RljuBB4-84" value="..." style="text;strokeColor=none;fillColor=none;align=left;verticalAlign=top;spacingLeft=4;spacingRight=4;overflow=hidden;rotatable=0;points=[[0,0.5],[1,0.5]];portConstraint=eastwest;whiteSpace=wrap;html=1;" parent="Qa1O-AV2vUnj4RljuBB4-83" vertex="1">
          <mxGeometry y="26" width="80" height="26" as="geometry" />
        </mxCell>
        <mxCell id="Qa1O-AV2vUnj4RljuBB4-87" value="" style="endArrow=block;endSize=16;endFill=0;html=1;rounded=0;" parent="1" source="Qa1O-AV2vUnj4RljuBB4-81" target="Qa1O-AV2vUnj4RljuBB4-38" edge="1">
          <mxGeometry width="160" relative="1" as="geometry">
            <mxPoint x="1660" y="696" as="sourcePoint" />
            <mxPoint x="1500" y="627" as="targetPoint" />
          </mxGeometry>
        </mxCell>
        <mxCell id="Qa1O-AV2vUnj4RljuBB4-88" value="" style="endArrow=block;endSize=16;endFill=0;html=1;rounded=0;" parent="1" source="Qa1O-AV2vUnj4RljuBB4-83" target="Qa1O-AV2vUnj4RljuBB4-38" edge="1">
          <mxGeometry width="160" relative="1" as="geometry">
            <mxPoint x="1660" y="696" as="sourcePoint" />
            <mxPoint x="1500" y="627" as="targetPoint" />
          </mxGeometry>
        </mxCell>
        <mxCell id="Qa1O-AV2vUnj4RljuBB4-89" value="" style="endArrow=block;endSize=16;endFill=0;html=1;rounded=0;" parent="1" source="Qa1O-AV2vUnj4RljuBB4-90" target="Qa1O-AV2vUnj4RljuBB4-38" edge="1">
          <mxGeometry width="160" relative="1" as="geometry">
            <mxPoint x="1760" y="532.2" as="sourcePoint" />
            <mxPoint x="1500" y="627" as="targetPoint" />
          </mxGeometry>
        </mxCell>
        <mxCell id="Qa1O-AV2vUnj4RljuBB4-90" value="..." style="swimlane;fontStyle=1;align=center;verticalAlign=top;childLayout=stackLayout;horizontal=1;startSize=26;horizontalStack=0;resizeParent=1;resizeParentMax=0;resizeLast=0;collapsible=1;marginBottom=0;whiteSpace=wrap;html=1;fillColor=#d5e8d4;strokeColor=#82b366;" parent="1" vertex="1">
          <mxGeometry x="1760" y="480" width="80" height="52" as="geometry" />
        </mxCell>
        <mxCell id="Qa1O-AV2vUnj4RljuBB4-91" value="..." style="text;strokeColor=none;fillColor=none;align=left;verticalAlign=top;spacingLeft=4;spacingRight=4;overflow=hidden;rotatable=0;points=[[0,0.5],[1,0.5]];portConstraint=eastwest;whiteSpace=wrap;html=1;" parent="Qa1O-AV2vUnj4RljuBB4-90" vertex="1">
          <mxGeometry y="26" width="80" height="26" as="geometry" />
        </mxCell>
        <mxCell id="Qa1O-AV2vUnj4RljuBB4-92" value="Use" style="endArrow=open;endSize=12;dashed=1;html=1;" parent="1" source="Qa1O-AV2vUnj4RljuBB4-117" target="Qa1O-AV2vUnj4RljuBB4-108" edge="1">
          <mxGeometry width="160" relative="1" as="geometry">
            <mxPoint x="450" y="2260" as="sourcePoint" />
            <mxPoint x="610" y="2260" as="targetPoint" />
          </mxGeometry>
        </mxCell>
        <mxCell id="Qa1O-AV2vUnj4RljuBB4-93" value="Creates" style="endArrow=open;endSize=12;dashed=1;html=1;" parent="1" source="Qa1O-AV2vUnj4RljuBB4-117" target="Qa1O-AV2vUnj4RljuBB4-104" edge="1">
          <mxGeometry width="160" relative="1" as="geometry">
            <mxPoint x="420.7950310559006" y="2320" as="sourcePoint" />
            <mxPoint x="396.0124223602486" y="2250" as="targetPoint" />
          </mxGeometry>
        </mxCell>
        <mxCell id="Qa1O-AV2vUnj4RljuBB4-94" value="Use" style="endArrow=open;endSize=12;dashed=1;html=1;" parent="1" source="Qa1O-AV2vUnj4RljuBB4-102" target="Qa1O-AV2vUnj4RljuBB4-108" edge="1">
          <mxGeometry width="160" relative="1" as="geometry">
            <mxPoint x="614.4917127071826" y="2340" as="sourcePoint" />
            <mxPoint x="474.27071823204415" y="2250" as="targetPoint" />
          </mxGeometry>
        </mxCell>
        <mxCell id="Qa1O-AV2vUnj4RljuBB4-95" value="Creates" style="endArrow=open;endSize=12;dashed=1;html=1;" parent="1" source="Qa1O-AV2vUnj4RljuBB4-102" target="Qa1O-AV2vUnj4RljuBB4-104" edge="1">
          <mxGeometry width="160" relative="1" as="geometry">
            <mxPoint x="660.0241545893723" y="2340" as="sourcePoint" />
            <mxPoint x="687.4637681159425" y="2198" as="targetPoint" />
          </mxGeometry>
        </mxCell>
        <mxCell id="Qa1O-AV2vUnj4RljuBB4-96" value="" style="endArrow=block;dashed=1;endFill=0;endSize=12;html=1;" parent="1" source="Qa1O-AV2vUnj4RljuBB4-117" target="Qa1O-AV2vUnj4RljuBB4-102" edge="1">
          <mxGeometry width="160" relative="1" as="geometry">
            <mxPoint x="190" y="2530" as="sourcePoint" />
            <mxPoint x="350" y="2530" as="targetPoint" />
          </mxGeometry>
        </mxCell>
        <mxCell id="Qa1O-AV2vUnj4RljuBB4-97" value="" style="endArrow=diamondThin;endFill=0;endSize=24;html=1;edgeStyle=orthogonalEdgeStyle;" parent="1" source="Qa1O-AV2vUnj4RljuBB4-102" target="Qa1O-AV2vUnj4RljuBB4-113" edge="1">
          <mxGeometry width="160" relative="1" as="geometry">
            <mxPoint x="344" y="2540" as="sourcePoint" />
            <mxPoint x="504" y="2540" as="targetPoint" />
            <Array as="points">
              <mxPoint x="142" y="2493" />
            </Array>
          </mxGeometry>
        </mxCell>
        <mxCell id="Qa1O-AV2vUnj4RljuBB4-98" value="" style="endArrow=block;dashed=1;endFill=0;endSize=12;html=1;" parent="1" source="Qa1O-AV2vUnj4RljuBB4-113" target="Qa1O-AV2vUnj4RljuBB4-102" edge="1">
          <mxGeometry width="160" relative="1" as="geometry">
            <mxPoint x="700" y="2377.156271899089" as="sourcePoint" />
            <mxPoint x="313" y="2379.868255080589" as="targetPoint" />
          </mxGeometry>
        </mxCell>
        <mxCell id="Qa1O-AV2vUnj4RljuBB4-99" value="Extends" style="endArrow=block;endSize=16;endFill=0;html=1;" parent="1" source="Qa1O-AV2vUnj4RljuBB4-122" target="Qa1O-AV2vUnj4RljuBB4-113" edge="1">
          <mxGeometry width="160" relative="1" as="geometry">
            <mxPoint x="720" y="2650" as="sourcePoint" />
            <mxPoint x="880" y="2650" as="targetPoint" />
          </mxGeometry>
        </mxCell>
        <mxCell id="Qa1O-AV2vUnj4RljuBB4-100" value="return m_wrappee-&amp;gt;SendRequest(urlRequest);" style="shape=note;whiteSpace=wrap;html=1;size=14;verticalAlign=top;align=left;spacingTop=-6;" parent="1" vertex="1">
          <mxGeometry x="474" y="2410" width="280" height="29" as="geometry" />
        </mxCell>
        <mxCell id="Qa1O-AV2vUnj4RljuBB4-101" style="edgeStyle=orthogonalEdgeStyle;rounded=0;orthogonalLoop=1;jettySize=auto;html=1;" parent="1" source="Qa1O-AV2vUnj4RljuBB4-114" target="Qa1O-AV2vUnj4RljuBB4-100" edge="1">
          <mxGeometry relative="1" as="geometry" />
        </mxCell>
        <mxCell id="Qa1O-AV2vUnj4RljuBB4-102" value="&lt;i&gt;&amp;lt;&amp;lt;interface&amp;gt;&amp;gt;&lt;br&gt;IHTTPClient&lt;/i&gt;" style="swimlane;fontStyle=1;align=center;verticalAlign=top;childLayout=stackLayout;horizontal=1;startSize=36;horizontalStack=0;resizeParent=1;resizeParentMax=0;resizeLast=0;collapsible=1;marginBottom=0;html=1;" parent="1" vertex="1">
          <mxGeometry x="-20" y="2340" width="323" height="62" as="geometry" />
        </mxCell>
        <mxCell id="Qa1O-AV2vUnj4RljuBB4-103" value="+ SendRequest(urlRequest: URLRequest): URLResponse" style="text;strokeColor=none;fillColor=none;align=left;verticalAlign=top;spacingLeft=4;spacingRight=4;overflow=hidden;rotatable=0;points=[[0,0.5],[1,0.5]];portConstraint=eastwest;fontStyle=2" parent="Qa1O-AV2vUnj4RljuBB4-102" vertex="1">
          <mxGeometry y="36" width="323" height="26" as="geometry" />
        </mxCell>
        <mxCell id="Qa1O-AV2vUnj4RljuBB4-104" value="URLResponse" style="swimlane;fontStyle=1;align=center;verticalAlign=top;childLayout=stackLayout;horizontal=1;startSize=26;horizontalStack=0;resizeParent=1;resizeParentMax=0;resizeLast=0;collapsible=1;marginBottom=0;" parent="1" vertex="1">
          <mxGeometry x="424" y="2130" width="230" height="104" as="geometry" />
        </mxCell>
        <mxCell id="Qa1O-AV2vUnj4RljuBB4-105" value="+ headers: vector&lt;pair&lt;string, string&gt;&gt;" style="text;strokeColor=none;fillColor=none;align=left;verticalAlign=top;spacingLeft=4;spacingRight=4;overflow=hidden;rotatable=0;points=[[0,0.5],[1,0.5]];portConstraint=eastwest;" parent="Qa1O-AV2vUnj4RljuBB4-104" vertex="1">
          <mxGeometry y="26" width="230" height="26" as="geometry" />
        </mxCell>
        <mxCell id="Qa1O-AV2vUnj4RljuBB4-106" value="+ data: vector&lt;byte&gt;" style="text;strokeColor=none;fillColor=none;align=left;verticalAlign=top;spacingLeft=4;spacingRight=4;overflow=hidden;rotatable=0;points=[[0,0.5],[1,0.5]];portConstraint=eastwest;" parent="Qa1O-AV2vUnj4RljuBB4-104" vertex="1">
          <mxGeometry y="52" width="230" height="26" as="geometry" />
        </mxCell>
        <mxCell id="Qa1O-AV2vUnj4RljuBB4-107" value="+ statusCode: int" style="text;strokeColor=none;fillColor=none;align=left;verticalAlign=top;spacingLeft=4;spacingRight=4;overflow=hidden;rotatable=0;points=[[0,0.5],[1,0.5]];portConstraint=eastwest;" parent="Qa1O-AV2vUnj4RljuBB4-104" vertex="1">
          <mxGeometry y="78" width="230" height="26" as="geometry" />
        </mxCell>
        <mxCell id="Qa1O-AV2vUnj4RljuBB4-108" value="URLRequest" style="swimlane;fontStyle=1;align=center;verticalAlign=top;childLayout=stackLayout;horizontal=1;startSize=26;horizontalStack=0;resizeParent=1;resizeParentMax=0;resizeLast=0;collapsible=1;marginBottom=0;" parent="1" vertex="1">
          <mxGeometry x="10" y="2140" width="226" height="130" as="geometry" />
        </mxCell>
        <mxCell id="Qa1O-AV2vUnj4RljuBB4-109" value="+ url: string" style="text;strokeColor=none;fillColor=none;align=left;verticalAlign=top;spacingLeft=4;spacingRight=4;overflow=hidden;rotatable=0;points=[[0,0.5],[1,0.5]];portConstraint=eastwest;" parent="Qa1O-AV2vUnj4RljuBB4-108" vertex="1">
          <mxGeometry y="26" width="226" height="26" as="geometry" />
        </mxCell>
        <mxCell id="Qa1O-AV2vUnj4RljuBB4-110" value="+ method: string" style="text;strokeColor=none;fillColor=none;align=left;verticalAlign=top;spacingLeft=4;spacingRight=4;overflow=hidden;rotatable=0;points=[[0,0.5],[1,0.5]];portConstraint=eastwest;" parent="Qa1O-AV2vUnj4RljuBB4-108" vertex="1">
          <mxGeometry y="52" width="226" height="26" as="geometry" />
        </mxCell>
        <mxCell id="Qa1O-AV2vUnj4RljuBB4-111" value="+ headers: vector&lt;pair&lt;string, string&gt;&gt;" style="text;strokeColor=none;fillColor=none;align=left;verticalAlign=top;spacingLeft=4;spacingRight=4;overflow=hidden;rotatable=0;points=[[0,0.5],[1,0.5]];portConstraint=eastwest;" parent="Qa1O-AV2vUnj4RljuBB4-108" vertex="1">
          <mxGeometry y="78" width="226" height="26" as="geometry" />
        </mxCell>
        <mxCell id="Qa1O-AV2vUnj4RljuBB4-112" value="+ body: vector&lt;byte&gt;" style="text;strokeColor=none;fillColor=none;align=left;verticalAlign=top;spacingLeft=4;spacingRight=4;overflow=hidden;rotatable=0;points=[[0,0.5],[1,0.5]];portConstraint=eastwest;" parent="Qa1O-AV2vUnj4RljuBB4-108" vertex="1">
          <mxGeometry y="104" width="226" height="26" as="geometry" />
        </mxCell>
        <mxCell id="Qa1O-AV2vUnj4RljuBB4-113" value="HTTPClientDecorator" style="swimlane;fontStyle=1;align=center;verticalAlign=top;childLayout=stackLayout;horizontal=1;startSize=26;horizontalStack=0;resizeParent=1;resizeParentMax=0;resizeLast=0;collapsible=1;marginBottom=0;fillColor=#dae8fc;strokeColor=#6c8ebf;" parent="1" vertex="1">
          <mxGeometry x="190" y="2451.5" width="330" height="86" as="geometry" />
        </mxCell>
        <mxCell id="Qa1O-AV2vUnj4RljuBB4-114" value="+ SendRequest(urlRequest: URLRequest): URLResponse" style="text;strokeColor=none;fillColor=none;align=left;verticalAlign=top;spacingLeft=4;spacingRight=4;overflow=hidden;rotatable=0;points=[[0,0.5],[1,0.5]];portConstraint=eastwest;" parent="Qa1O-AV2vUnj4RljuBB4-113" vertex="1">
          <mxGeometry y="26" width="330" height="26" as="geometry" />
        </mxCell>
        <mxCell id="Qa1O-AV2vUnj4RljuBB4-115" value="" style="line;strokeWidth=1;fillColor=none;align=left;verticalAlign=middle;spacingTop=-1;spacingLeft=3;spacingRight=3;rotatable=0;labelPosition=right;points=[];portConstraint=eastwest;html=1;" parent="Qa1O-AV2vUnj4RljuBB4-113" vertex="1">
          <mxGeometry y="52" width="330" height="8" as="geometry" />
        </mxCell>
        <mxCell id="Qa1O-AV2vUnj4RljuBB4-116" value="- m_wrappee:IHTTPClient" style="text;strokeColor=none;fillColor=none;align=left;verticalAlign=top;spacingLeft=4;spacingRight=4;overflow=hidden;rotatable=0;points=[[0,0.5],[1,0.5]];portConstraint=eastwest;" parent="Qa1O-AV2vUnj4RljuBB4-113" vertex="1">
          <mxGeometry y="60" width="330" height="26" as="geometry" />
        </mxCell>
        <mxCell id="Qa1O-AV2vUnj4RljuBB4-117" value="HTTPClient" style="swimlane;fontStyle=1;align=center;verticalAlign=top;childLayout=stackLayout;horizontal=1;startSize=26;horizontalStack=0;resizeParent=1;resizeParentMax=0;resizeLast=0;collapsible=1;marginBottom=0;" parent="1" vertex="1">
          <mxGeometry x="424" y="2320" width="330" height="52" as="geometry" />
        </mxCell>
        <mxCell id="Qa1O-AV2vUnj4RljuBB4-118" value="+ SendRequest(urlRequest: URLRequest): URLResponse" style="text;strokeColor=none;fillColor=none;align=left;verticalAlign=top;spacingLeft=4;spacingRight=4;overflow=hidden;rotatable=0;points=[[0,0.5],[1,0.5]];portConstraint=eastwest;" parent="Qa1O-AV2vUnj4RljuBB4-117" vertex="1">
          <mxGeometry y="26" width="330" height="26" as="geometry" />
        </mxCell>
        <mxCell id="Qa1O-AV2vUnj4RljuBB4-119" value="" style="endArrow=diamondThin;endFill=0;endSize=24;html=1;" parent="1" source="Qa1O-AV2vUnj4RljuBB4-126" target="Qa1O-AV2vUnj4RljuBB4-129" edge="1">
          <mxGeometry width="160" relative="1" as="geometry">
            <mxPoint x="-130" y="2760" as="sourcePoint" />
            <mxPoint x="30" y="2760" as="targetPoint" />
          </mxGeometry>
        </mxCell>
        <mxCell id="Qa1O-AV2vUnj4RljuBB4-120" value="" style="endArrow=diamondThin;endFill=0;endSize=24;html=1;" parent="1" source="Qa1O-AV2vUnj4RljuBB4-126" target="Qa1O-AV2vUnj4RljuBB4-122" edge="1">
          <mxGeometry width="160" relative="1" as="geometry">
            <mxPoint x="157.91095890410952" y="2760" as="sourcePoint" />
            <mxPoint x="72.43150684931516" y="2696" as="targetPoint" />
          </mxGeometry>
        </mxCell>
        <mxCell id="Qa1O-AV2vUnj4RljuBB4-121" value="Extends" style="endArrow=block;endSize=16;endFill=0;html=1;" parent="1" source="Qa1O-AV2vUnj4RljuBB4-129" target="Qa1O-AV2vUnj4RljuBB4-113" edge="1">
          <mxGeometry width="160" relative="1" as="geometry">
            <mxPoint x="372.10437710437736" y="2610" as="sourcePoint" />
            <mxPoint x="367.8956228956231" y="2547.5" as="targetPoint" />
          </mxGeometry>
        </mxCell>
        <mxCell id="Qa1O-AV2vUnj4RljuBB4-122" value="BearerAuthorizationDecorator" style="swimlane;fontStyle=1;align=center;verticalAlign=top;childLayout=stackLayout;horizontal=1;startSize=26;horizontalStack=0;resizeParent=1;resizeParentMax=0;resizeLast=0;collapsible=1;marginBottom=0;fillColor=#dae8fc;strokeColor=#6c8ebf;" parent="1" vertex="1">
          <mxGeometry x="330" y="2600" width="330" height="86" as="geometry" />
        </mxCell>
        <mxCell id="Qa1O-AV2vUnj4RljuBB4-123" value="+ SendRequest(urlRequest: URLRequest): URLResponse" style="text;strokeColor=none;fillColor=none;align=left;verticalAlign=top;spacingLeft=4;spacingRight=4;overflow=hidden;rotatable=0;points=[[0,0.5],[1,0.5]];portConstraint=eastwest;" parent="Qa1O-AV2vUnj4RljuBB4-122" vertex="1">
          <mxGeometry y="26" width="330" height="26" as="geometry" />
        </mxCell>
        <mxCell id="Qa1O-AV2vUnj4RljuBB4-124" value="" style="line;strokeWidth=1;fillColor=none;align=left;verticalAlign=middle;spacingTop=-1;spacingLeft=3;spacingRight=3;rotatable=0;labelPosition=right;points=[];portConstraint=eastwest;html=1;" parent="Qa1O-AV2vUnj4RljuBB4-122" vertex="1">
          <mxGeometry y="52" width="330" height="8" as="geometry" />
        </mxCell>
        <mxCell id="Qa1O-AV2vUnj4RljuBB4-125" value="- m_tokenStorage: TokenStorage" style="text;strokeColor=none;fillColor=none;align=left;verticalAlign=top;spacingLeft=4;spacingRight=4;overflow=hidden;rotatable=0;points=[[0,0.5],[1,0.5]];portConstraint=eastwest;" parent="Qa1O-AV2vUnj4RljuBB4-122" vertex="1">
          <mxGeometry y="60" width="330" height="26" as="geometry" />
        </mxCell>
        <mxCell id="Qa1O-AV2vUnj4RljuBB4-126" value="TokenStorage" style="swimlane;fontStyle=1;align=center;verticalAlign=top;childLayout=stackLayout;horizontal=1;startSize=26;horizontalStack=0;resizeParent=1;resizeParentMax=0;resizeLast=0;collapsible=1;marginBottom=0;html=1;fillColor=#dae8fc;strokeColor=#6c8ebf;" parent="1" vertex="1">
          <mxGeometry x="256" y="2710" width="134" height="78" as="geometry" />
        </mxCell>
        <mxCell id="Qa1O-AV2vUnj4RljuBB4-127" value="+ accessToken: string" style="text;strokeColor=none;fillColor=none;align=left;verticalAlign=top;spacingLeft=4;spacingRight=4;overflow=hidden;rotatable=0;points=[[0,0.5],[1,0.5]];portConstraint=eastwest;" parent="Qa1O-AV2vUnj4RljuBB4-126" vertex="1">
          <mxGeometry y="26" width="134" height="26" as="geometry" />
        </mxCell>
        <mxCell id="Qa1O-AV2vUnj4RljuBB4-128" value="+ refreshToken: string" style="text;strokeColor=none;fillColor=none;align=left;verticalAlign=top;spacingLeft=4;spacingRight=4;overflow=hidden;rotatable=0;points=[[0,0.5],[1,0.5]];portConstraint=eastwest;" parent="Qa1O-AV2vUnj4RljuBB4-126" vertex="1">
          <mxGeometry y="52" width="134" height="26" as="geometry" />
        </mxCell>
        <mxCell id="Qa1O-AV2vUnj4RljuBB4-129" value="TokenRefreshingDecorator" style="swimlane;fontStyle=1;align=center;verticalAlign=top;childLayout=stackLayout;horizontal=1;startSize=26;horizontalStack=0;resizeParent=1;resizeParentMax=0;resizeLast=0;collapsible=1;marginBottom=0;fillColor=#dae8fc;strokeColor=#6c8ebf;" parent="1" vertex="1">
          <mxGeometry x="-30" y="2600" width="330" height="86" as="geometry" />
        </mxCell>
        <mxCell id="Qa1O-AV2vUnj4RljuBB4-130" value="+ SendRequest(urlRequest: URLRequest): URLResponse" style="text;strokeColor=none;fillColor=none;align=left;verticalAlign=top;spacingLeft=4;spacingRight=4;overflow=hidden;rotatable=0;points=[[0,0.5],[1,0.5]];portConstraint=eastwest;" parent="Qa1O-AV2vUnj4RljuBB4-129" vertex="1">
          <mxGeometry y="26" width="330" height="26" as="geometry" />
        </mxCell>
        <mxCell id="Qa1O-AV2vUnj4RljuBB4-131" value="" style="line;strokeWidth=1;fillColor=none;align=left;verticalAlign=middle;spacingTop=-1;spacingLeft=3;spacingRight=3;rotatable=0;labelPosition=right;points=[];portConstraint=eastwest;html=1;" parent="Qa1O-AV2vUnj4RljuBB4-129" vertex="1">
          <mxGeometry y="52" width="330" height="8" as="geometry" />
        </mxCell>
        <mxCell id="Qa1O-AV2vUnj4RljuBB4-132" value="- m_tokenStorage: TokenStorage" style="text;strokeColor=none;fillColor=none;align=left;verticalAlign=top;spacingLeft=4;spacingRight=4;overflow=hidden;rotatable=0;points=[[0,0.5],[1,0.5]];portConstraint=eastwest;" parent="Qa1O-AV2vUnj4RljuBB4-129" vertex="1">
          <mxGeometry y="60" width="330" height="26" as="geometry" />
        </mxCell>
        <mxCell id="Qa1O-AV2vUnj4RljuBB4-133" value="LoggingHTTPClientDecorator" style="swimlane;fontStyle=1;align=center;verticalAlign=top;childLayout=stackLayout;horizontal=1;startSize=26;horizontalStack=0;resizeParent=1;resizeParentMax=0;resizeLast=0;collapsible=1;marginBottom=0;fillColor=#dae8fc;strokeColor=#6c8ebf;" parent="1" vertex="1">
          <mxGeometry x="740" y="2600" width="330" height="86" as="geometry" />
        </mxCell>
        <mxCell id="Qa1O-AV2vUnj4RljuBB4-134" value="+ SendRequest(urlRequest: URLRequest): URLResponse" style="text;strokeColor=none;fillColor=none;align=left;verticalAlign=top;spacingLeft=4;spacingRight=4;overflow=hidden;rotatable=0;points=[[0,0.5],[1,0.5]];portConstraint=eastwest;" parent="Qa1O-AV2vUnj4RljuBB4-133" vertex="1">
          <mxGeometry y="26" width="330" height="26" as="geometry" />
        </mxCell>
        <mxCell id="Qa1O-AV2vUnj4RljuBB4-135" value="" style="line;strokeWidth=1;fillColor=none;align=left;verticalAlign=middle;spacingTop=-1;spacingLeft=3;spacingRight=3;rotatable=0;labelPosition=right;points=[];portConstraint=eastwest;html=1;" parent="Qa1O-AV2vUnj4RljuBB4-133" vertex="1">
          <mxGeometry y="52" width="330" height="8" as="geometry" />
        </mxCell>
        <mxCell id="Qa1O-AV2vUnj4RljuBB4-136" value="- m_logger: Logger" style="text;strokeColor=none;fillColor=none;align=left;verticalAlign=top;spacingLeft=4;spacingRight=4;overflow=hidden;rotatable=0;points=[[0,0.5],[1,0.5]];portConstraint=eastwest;" parent="Qa1O-AV2vUnj4RljuBB4-133" vertex="1">
          <mxGeometry y="60" width="330" height="26" as="geometry" />
        </mxCell>
        <mxCell id="Qa1O-AV2vUnj4RljuBB4-137" value="Extends" style="endArrow=block;endSize=16;endFill=0;html=1;" parent="1" source="Qa1O-AV2vUnj4RljuBB4-133" target="Qa1O-AV2vUnj4RljuBB4-113" edge="1">
          <mxGeometry width="160" relative="1" as="geometry">
            <mxPoint x="550" y="2610" as="sourcePoint" />
            <mxPoint x="440" y="2548" as="targetPoint" />
          </mxGeometry>
        </mxCell>
        <mxCell id="Qa1O-AV2vUnj4RljuBB4-138" value="Logger" style="swimlane;fontStyle=1;align=center;verticalAlign=top;childLayout=stackLayout;horizontal=1;startSize=26;horizontalStack=0;resizeParent=1;resizeParentMax=0;resizeLast=0;collapsible=1;marginBottom=0;" parent="1" vertex="1">
          <mxGeometry x="840" y="2468.5" width="130" height="52" as="geometry" />
        </mxCell>
        <mxCell id="Qa1O-AV2vUnj4RljuBB4-139" value="+ Log(args...)" style="text;strokeColor=none;fillColor=none;align=left;verticalAlign=top;spacingLeft=4;spacingRight=4;overflow=hidden;rotatable=0;points=[[0,0.5],[1,0.5]];portConstraint=eastwest;" parent="Qa1O-AV2vUnj4RljuBB4-138" vertex="1">
          <mxGeometry y="26" width="130" height="26" as="geometry" />
        </mxCell>
        <mxCell id="Qa1O-AV2vUnj4RljuBB4-140" value="" style="endArrow=diamondThin;endFill=0;endSize=24;html=1;rounded=0;" parent="1" source="Qa1O-AV2vUnj4RljuBB4-138" target="Qa1O-AV2vUnj4RljuBB4-133" edge="1">
          <mxGeometry width="160" relative="1" as="geometry">
            <mxPoint x="770" y="2550" as="sourcePoint" />
            <mxPoint x="930" y="2550" as="targetPoint" />
          </mxGeometry>
        </mxCell>
        <mxCell id="yNFFXoe67F4gVXR_sXpN-1" value="&lt;div&gt;&lt;span style=&quot;font-weight: normal;&quot;&gt;&amp;lt;&amp;lt;Interface&amp;gt;&amp;gt;&lt;/span&gt;&lt;/div&gt;IBeverage" style="swimlane;fontStyle=3;align=center;verticalAlign=top;childLayout=stackLayout;horizontal=1;startSize=40;horizontalStack=0;resizeParent=1;resizeParentMax=0;resizeLast=0;collapsible=1;marginBottom=0;whiteSpace=wrap;html=1;" vertex="1" parent="1">
          <mxGeometry x="2000" y="122" width="160" height="92" as="geometry" />
        </mxCell>
        <mxCell id="yNFFXoe67F4gVXR_sXpN-2" value="+GetDescription():string" style="text;strokeColor=none;fillColor=none;align=left;verticalAlign=top;spacingLeft=4;spacingRight=4;overflow=hidden;rotatable=0;points=[[0,0.5],[1,0.5]];portConstraint=eastwest;whiteSpace=wrap;html=1;fontStyle=2" vertex="1" parent="yNFFXoe67F4gVXR_sXpN-1">
          <mxGeometry y="40" width="160" height="26" as="geometry" />
        </mxCell>
        <mxCell id="yNFFXoe67F4gVXR_sXpN-3" value="+GetCost():double" style="text;strokeColor=none;fillColor=none;align=left;verticalAlign=top;spacingLeft=4;spacingRight=4;overflow=hidden;rotatable=0;points=[[0,0.5],[1,0.5]];portConstraint=eastwest;whiteSpace=wrap;html=1;fontStyle=2" vertex="1" parent="yNFFXoe67F4gVXR_sXpN-1">
          <mxGeometry y="66" width="160" height="26" as="geometry" />
        </mxCell>
        <mxCell id="yNFFXoe67F4gVXR_sXpN-4" value="CondimentDecorator" style="swimlane;fontStyle=3;align=center;verticalAlign=top;childLayout=stackLayout;horizontal=1;startSize=26;horizontalStack=0;resizeParent=1;resizeParentMax=0;resizeLast=0;collapsible=1;marginBottom=0;whiteSpace=wrap;html=1;" vertex="1" parent="1">
          <mxGeometry x="1980" y="282" width="200" height="164" as="geometry" />
        </mxCell>
        <mxCell id="yNFFXoe67F4gVXR_sXpN-8" value="+GetDescription():string" style="text;strokeColor=#d6b656;fillColor=#fff2cc;align=left;verticalAlign=top;spacingLeft=4;spacingRight=4;overflow=hidden;rotatable=0;points=[[0,0.5],[1,0.5]];portConstraint=eastwest;whiteSpace=wrap;html=1;fontStyle=0" vertex="1" parent="yNFFXoe67F4gVXR_sXpN-4">
          <mxGeometry y="26" width="200" height="26" as="geometry" />
        </mxCell>
        <mxCell id="yNFFXoe67F4gVXR_sXpN-7" value="+GetCost():double" style="text;strokeColor=#d6b656;fillColor=#fff2cc;align=left;verticalAlign=top;spacingLeft=4;spacingRight=4;overflow=hidden;rotatable=0;points=[[0,0.5],[1,0.5]];portConstraint=eastwest;whiteSpace=wrap;html=1;fontStyle=0" vertex="1" parent="yNFFXoe67F4gVXR_sXpN-4">
          <mxGeometry y="52" width="200" height="26" as="geometry" />
        </mxCell>
        <mxCell id="yNFFXoe67F4gVXR_sXpN-9" value="" style="line;strokeWidth=1;fillColor=none;align=left;verticalAlign=middle;spacingTop=-1;spacingLeft=3;spacingRight=3;rotatable=0;labelPosition=right;points=[];portConstraint=eastwest;strokeColor=inherit;" vertex="1" parent="yNFFXoe67F4gVXR_sXpN-4">
          <mxGeometry y="78" width="200" height="8" as="geometry" />
        </mxCell>
        <mxCell id="yNFFXoe67F4gVXR_sXpN-10" value="-GetCondimentDescription():string" style="text;strokeColor=#82b366;fillColor=#d5e8d4;align=left;verticalAlign=top;spacingLeft=4;spacingRight=4;overflow=hidden;rotatable=0;points=[[0,0.5],[1,0.5]];portConstraint=eastwest;whiteSpace=wrap;html=1;fontStyle=2" vertex="1" parent="yNFFXoe67F4gVXR_sXpN-4">
          <mxGeometry y="86" width="200" height="26" as="geometry" />
        </mxCell>
        <mxCell id="yNFFXoe67F4gVXR_sXpN-11" value="-GetCondimentCost():string" style="text;strokeColor=#82b366;fillColor=#d5e8d4;align=left;verticalAlign=top;spacingLeft=4;spacingRight=4;overflow=hidden;rotatable=0;points=[[0,0.5],[1,0.5]];portConstraint=eastwest;whiteSpace=wrap;html=1;fontStyle=2" vertex="1" parent="yNFFXoe67F4gVXR_sXpN-4">
          <mxGeometry y="112" width="200" height="26" as="geometry" />
        </mxCell>
        <mxCell id="yNFFXoe67F4gVXR_sXpN-23" value="-m_beverage:IBeverage" style="text;strokeColor=none;fillColor=none;align=left;verticalAlign=top;spacingLeft=4;spacingRight=4;overflow=hidden;rotatable=0;points=[[0,0.5],[1,0.5]];portConstraint=eastwest;whiteSpace=wrap;html=1;" vertex="1" parent="yNFFXoe67F4gVXR_sXpN-4">
          <mxGeometry y="138" width="200" height="26" as="geometry" />
        </mxCell>
        <mxCell id="yNFFXoe67F4gVXR_sXpN-6" value="" style="endArrow=block;dashed=1;endFill=0;endSize=12;html=1;rounded=0;" edge="1" parent="1" source="yNFFXoe67F4gVXR_sXpN-4" target="yNFFXoe67F4gVXR_sXpN-1">
          <mxGeometry width="160" relative="1" as="geometry">
            <mxPoint x="2060" y="262" as="sourcePoint" />
            <mxPoint x="2220" y="262" as="targetPoint" />
          </mxGeometry>
        </mxCell>
        <mxCell id="yNFFXoe67F4gVXR_sXpN-12" value="ConcreteCondiment" style="swimlane;fontStyle=1;align=center;verticalAlign=top;childLayout=stackLayout;horizontal=1;startSize=26;horizontalStack=0;resizeParent=1;resizeParentMax=0;resizeLast=0;collapsible=1;marginBottom=0;whiteSpace=wrap;html=1;" vertex="1" parent="1">
          <mxGeometry x="1980" y="523" width="200" height="78" as="geometry" />
        </mxCell>
        <mxCell id="yNFFXoe67F4gVXR_sXpN-16" value="-GetCondimentDescription():string" style="text;strokeColor=#82b366;fillColor=#d5e8d4;align=left;verticalAlign=top;spacingLeft=4;spacingRight=4;overflow=hidden;rotatable=0;points=[[0,0.5],[1,0.5]];portConstraint=eastwest;whiteSpace=wrap;html=1;fontStyle=0" vertex="1" parent="yNFFXoe67F4gVXR_sXpN-12">
          <mxGeometry y="26" width="200" height="26" as="geometry" />
        </mxCell>
        <mxCell id="yNFFXoe67F4gVXR_sXpN-17" value="-GetCondimentCost():string" style="text;strokeColor=#82b366;fillColor=#d5e8d4;align=left;verticalAlign=top;spacingLeft=4;spacingRight=4;overflow=hidden;rotatable=0;points=[[0,0.5],[1,0.5]];portConstraint=eastwest;whiteSpace=wrap;html=1;fontStyle=0" vertex="1" parent="yNFFXoe67F4gVXR_sXpN-12">
          <mxGeometry y="52" width="200" height="26" as="geometry" />
        </mxCell>
        <mxCell id="yNFFXoe67F4gVXR_sXpN-18" value="Extends" style="endArrow=block;endSize=16;endFill=0;html=1;rounded=0;" edge="1" parent="1" source="yNFFXoe67F4gVXR_sXpN-12" target="yNFFXoe67F4gVXR_sXpN-4">
          <mxGeometry width="160" relative="1" as="geometry">
            <mxPoint x="2180" y="440" as="sourcePoint" />
            <mxPoint x="2340" y="440" as="targetPoint" />
          </mxGeometry>
        </mxCell>
        <mxCell id="yNFFXoe67F4gVXR_sXpN-19" value="string GetDescription() const&lt;div&gt;{&lt;/div&gt;&lt;div&gt;&amp;nbsp; return m_beverate-&amp;gt;GetDescription() + &quot;, &quot; + GetCondimentDescription();&lt;/div&gt;&lt;div&gt;}&lt;/div&gt;" style="shape=note;whiteSpace=wrap;html=1;backgroundOutline=1;darkOpacity=0.05;fillColor=#ffff88;strokeColor=#36393d;align=left;fontFamily=Consolas;spacingLeft=3;size=18;" vertex="1" parent="1">
          <mxGeometry x="2250" y="281" width="490" height="80" as="geometry" />
        </mxCell>
        <mxCell id="yNFFXoe67F4gVXR_sXpN-20" style="edgeStyle=orthogonalEdgeStyle;rounded=0;orthogonalLoop=1;jettySize=auto;html=1;" edge="1" parent="1" source="yNFFXoe67F4gVXR_sXpN-8" target="yNFFXoe67F4gVXR_sXpN-19">
          <mxGeometry relative="1" as="geometry" />
        </mxCell>
        <mxCell id="yNFFXoe67F4gVXR_sXpN-21" value="string GetCost() const&lt;div&gt;{&lt;/div&gt;&lt;div&gt;&amp;nbsp; return m_beverate-&amp;gt;GetCost() + GetCondimentCost();&lt;/div&gt;&lt;div&gt;}&lt;/div&gt;" style="shape=note;whiteSpace=wrap;html=1;backgroundOutline=1;darkOpacity=0.05;fillColor=#ffff88;strokeColor=#36393d;align=left;fontFamily=Consolas;spacingLeft=3;size=18;" vertex="1" parent="1">
          <mxGeometry x="2250" y="380" width="370" height="80" as="geometry" />
        </mxCell>
        <mxCell id="yNFFXoe67F4gVXR_sXpN-22" style="edgeStyle=orthogonalEdgeStyle;rounded=0;orthogonalLoop=1;jettySize=auto;html=1;" edge="1" parent="1" source="yNFFXoe67F4gVXR_sXpN-7" target="yNFFXoe67F4gVXR_sXpN-21">
          <mxGeometry relative="1" as="geometry">
            <Array as="points">
              <mxPoint x="2210" y="347" />
              <mxPoint x="2210" y="410" />
            </Array>
          </mxGeometry>
        </mxCell>
        <mxCell id="yNFFXoe67F4gVXR_sXpN-24" value="" style="endArrow=diamondThin;endFill=1;endSize=24;html=1;rounded=0;edgeStyle=orthogonalEdgeStyle;" edge="1" parent="1" source="yNFFXoe67F4gVXR_sXpN-1" target="yNFFXoe67F4gVXR_sXpN-23">
          <mxGeometry width="160" relative="1" as="geometry">
            <mxPoint x="1740" y="360" as="sourcePoint" />
            <mxPoint x="1900" y="360" as="targetPoint" />
            <Array as="points">
              <mxPoint x="1930" y="168" />
              <mxPoint x="1930" y="433" />
            </Array>
          </mxGeometry>
        </mxCell>
      </root>
    </mxGraphModel>
  </diagram>
</mxfile>
